<svg xmlns="http://www.w3.org/2000/svg" xmlns:xlink="http://www.w3.org/1999/xlink" width="942" zoomAndPan="magnify" viewBox="0 0 706.5 160.499995" height="214" preserveAspectRatio="xMidYMid meet" version="1.0"><defs><g/><clipPath id="635ece76fd"><path d="M 0.847656 0 L 705.152344 0 L 705.152344 160 L 0.847656 160 Z M 0.847656 0 " clip-rule="nonzero"/></clipPath><clipPath id="32ce2a4730"><path d="M 0.847656 35.722656 L 89.074219 35.722656 L 89.074219 123.945312 L 0.847656 123.945312 Z M 0.847656 35.722656 " clip-rule="nonzero"/></clipPath></defs><g clip-path="url(#635ece76fd)"><path fill="#ffffff" d="M 0.847656 0 L 705.152344 0 L 705.152344 160 L 0.847656 160 Z M 0.847656 0 " fill-opacity="1" fill-rule="nonzero"/></g><g clip-path="url(#32ce2a4730)"><path fill="#377dff" d="M 44.960938 35.722656 C 20.636719 35.722656 0.847656 55.507812 0.847656 79.835938 C 0.847656 104.160156 20.636719 123.945312 44.960938 123.945312 C 69.285156 123.945312 89.074219 104.160156 89.074219 79.835938 C 89.074219 55.507812 69.285156 35.722656 44.960938 35.722656 Z M 67.59375 56.820312 L 68.105469 56.820312 C 68.472656 66.023438 64.273438 75.261719 55.878906 83.65625 L 55.839844 83.695312 L 55.800781 83.738281 C 54.164062 85.582031 52.941406 86.753906 51.453125 87.910156 L 50.714844 88.488281 L 50.714844 89.425781 C 50.714844 97.03125 48.65625 102.199219 43.605469 107.246094 L 43.042969 107.808594 L 43.042969 92.519531 L 34.832031 96.582031 L 28.007812 90.015625 L 32.277344 81.753906 L 16.984375 81.753906 L 17.546875 81.191406 C 22.597656 76.140625 27.761719 74.082031 35.371094 74.082031 L 36.230469 74.082031 L 36.800781 73.4375 C 38.296875 71.753906 39.613281 70.441406 41.140625 68.914062 C 49.277344 60.777344 57.933594 56.820312 67.59375 56.820312 Z M 52.632812 68.328125 C 52.125 68.328125 51.632812 68.425781 51.164062 68.617188 C 50.695312 68.8125 50.28125 69.089844 49.917969 69.449219 C 49.558594 69.808594 49.28125 70.226562 49.089844 70.695312 C 48.894531 71.164062 48.796875 71.652344 48.796875 72.164062 C 48.796875 72.671875 48.894531 73.160156 49.089844 73.628906 C 49.28125 74.101562 49.558594 74.515625 49.917969 74.875 C 50.28125 75.234375 50.695312 75.511719 51.164062 75.707031 C 51.632812 75.902344 52.125 76 52.632812 76 C 53.140625 76 53.628906 75.902344 54.101562 75.707031 C 54.570312 75.511719 54.984375 75.234375 55.34375 74.875 C 55.703125 74.515625 55.980469 74.101562 56.175781 73.628906 C 56.371094 73.160156 56.46875 72.671875 56.46875 72.164062 C 56.46875 71.652344 56.371094 71.164062 56.175781 70.695312 C 55.980469 70.226562 55.703125 69.808594 55.34375 69.449219 C 54.984375 69.089844 54.570312 68.8125 54.101562 68.617188 C 53.628906 68.425781 53.140625 68.328125 52.632812 68.328125 Z M 25.347656 92.824219 L 26.929688 94.410156 C 25.835938 96.171875 25.660156 97.710938 25.800781 98.949219 C 27.0625 99.089844 28.632812 99.015625 30.4375 97.921875 L 32.007812 99.484375 C 31.675781 99.910156 31.328125 100.324219 30.976562 100.675781 C 27.90625 103.746094 23.882812 105.085938 20.046875 104.703125 C 19.855469 100.867188 21.195312 96.84375 24.265625 93.773438 C 24.585938 93.453125 24.960938 93.132812 25.347656 92.824219 Z M 25.347656 92.824219 " fill-opacity="1" fill-rule="nonzero"/></g><g fill="#377dff" fill-opacity="1"><g transform="translate(102.716451, 109.372708)"><g><path d="M 18.28125 -61.296875 L 18.28125 0 L 5.328125 0 L 5.328125 -61.296875 Z M 18.28125 -61.296875 "/></g></g></g><g fill="#377dff" fill-opacity="1"><g transform="translate(126.359302, 109.372708)"><g><path d="M 5.09375 0 L 5.09375 -45.96875 L 17.234375 -45.96875 L 17.234375 -37.859375 L 17.78125 -37.859375 C 18.738281 -40.578125 20.335938 -42.707031 22.578125 -44.25 C 24.828125 -45.789062 27.5 -46.5625 30.59375 -46.5625 C 33.738281 -46.5625 36.421875 -45.78125 38.640625 -44.21875 C 40.859375 -42.65625 42.332031 -40.535156 43.0625 -37.859375 L 43.546875 -37.859375 C 44.484375 -40.492188 46.179688 -42.601562 48.640625 -44.1875 C 51.109375 -45.769531 54.03125 -46.5625 57.40625 -46.5625 C 61.695312 -46.5625 65.179688 -45.203125 67.859375 -42.484375 C 70.546875 -39.765625 71.890625 -35.910156 71.890625 -30.921875 L 71.890625 0 L 59.171875 0 L 59.171875 -28.40625 C 59.171875 -30.957031 58.488281 -32.867188 57.125 -34.140625 C 55.769531 -35.421875 54.078125 -36.0625 52.046875 -36.0625 C 49.734375 -36.0625 47.925781 -35.320312 46.625 -33.84375 C 45.332031 -32.375 44.6875 -30.453125 44.6875 -28.078125 L 44.6875 0 L 32.328125 0 L 32.328125 -28.671875 C 32.328125 -30.921875 31.679688 -32.710938 30.390625 -34.046875 C 29.109375 -35.390625 27.414062 -36.0625 25.3125 -36.0625 C 23.195312 -36.0625 21.421875 -35.285156 19.984375 -33.734375 C 18.554688 -32.191406 17.84375 -30.144531 17.84375 -27.59375 L 17.84375 0 Z M 5.09375 0 "/></g></g></g><g fill="#377dff" fill-opacity="1"><g transform="translate(203.213526, 109.372708)"><g><path d="M 5.09375 17.234375 L 5.09375 -45.96875 L 17.65625 -45.96875 L 17.65625 -38.25 L 18.234375 -38.25 C 18.804688 -39.507812 19.617188 -40.773438 20.671875 -42.046875 C 21.734375 -43.328125 23.128906 -44.398438 24.859375 -45.265625 C 26.597656 -46.128906 28.75 -46.5625 31.3125 -46.5625 C 34.675781 -46.5625 37.765625 -45.6875 40.578125 -43.9375 C 43.390625 -42.195312 45.648438 -39.578125 47.359375 -36.078125 C 49.066406 -32.578125 49.921875 -28.191406 49.921875 -22.921875 C 49.921875 -17.796875 49.09375 -13.472656 47.4375 -9.953125 C 45.78125 -6.429688 43.546875 -3.765625 40.734375 -1.953125 C 37.921875 -0.148438 34.769531 0.75 31.28125 0.75 C 28.800781 0.75 26.695312 0.34375 24.96875 -0.46875 C 23.25 -1.289062 21.84375 -2.328125 20.75 -3.578125 C 19.664062 -4.828125 18.828125 -6.085938 18.234375 -7.359375 L 17.84375 -7.359375 L 17.84375 17.234375 Z M 17.5625 -22.984375 C 17.5625 -18.890625 18.40625 -15.597656 20.09375 -13.109375 C 21.78125 -10.628906 24.160156 -9.390625 27.234375 -9.390625 C 30.367188 -9.390625 32.765625 -10.648438 34.421875 -13.171875 C 36.078125 -15.703125 36.90625 -18.972656 36.90625 -22.984375 C 36.90625 -26.972656 36.082031 -30.207031 34.4375 -32.6875 C 32.789062 -35.175781 30.390625 -36.421875 27.234375 -36.421875 C 24.140625 -36.421875 21.753906 -35.207031 20.078125 -32.78125 C 18.398438 -30.363281 17.5625 -27.097656 17.5625 -22.984375 Z M 17.5625 -22.984375 "/></g></g></g><g fill="#377dff" fill-opacity="1"><g transform="translate(256.514684, 109.372708)"><g><path d="M 18.203125 0.875 C 13.804688 0.875 10.160156 -0.269531 7.265625 -2.5625 C 4.378906 -4.863281 2.9375 -8.289062 2.9375 -12.84375 C 2.9375 -16.269531 3.742188 -18.960938 5.359375 -20.921875 C 6.972656 -22.878906 9.09375 -24.3125 11.71875 -25.21875 C 14.34375 -26.125 17.171875 -26.71875 20.203125 -27 C 24.191406 -27.394531 27.046875 -27.8125 28.765625 -28.25 C 30.484375 -28.6875 31.34375 -29.644531 31.34375 -31.125 L 31.34375 -31.3125 C 31.34375 -33.207031 30.75 -34.671875 29.5625 -35.703125 C 28.375 -36.742188 26.691406 -37.265625 24.515625 -37.265625 C 22.210938 -37.265625 20.382812 -36.765625 19.03125 -35.765625 C 17.675781 -34.765625 16.78125 -33.5 16.34375 -31.96875 L 4.546875 -32.921875 C 5.421875 -37.109375 7.597656 -40.425781 11.078125 -42.875 C 14.566406 -45.332031 19.066406 -46.5625 24.578125 -46.5625 C 27.984375 -46.5625 31.171875 -46.023438 34.140625 -44.953125 C 37.117188 -43.878906 39.519531 -42.195312 41.34375 -39.90625 C 43.175781 -37.625 44.09375 -34.65625 44.09375 -31 L 44.09375 0 L 32 0 L 32 -6.375 L 31.640625 -6.375 C 30.515625 -4.238281 28.835938 -2.492188 26.609375 -1.140625 C 24.390625 0.203125 21.585938 0.875 18.203125 0.875 Z M 21.84375 -7.9375 C 24.632812 -7.9375 26.925781 -8.75 28.71875 -10.375 C 30.519531 -12 31.421875 -14.019531 31.421875 -16.4375 L 31.421875 -21.3125 C 30.921875 -20.96875 30.144531 -20.664062 29.09375 -20.40625 C 28.050781 -20.144531 26.9375 -19.921875 25.75 -19.734375 C 24.5625 -19.546875 23.5 -19.382812 22.5625 -19.25 C 20.332031 -18.925781 18.53125 -18.296875 17.15625 -17.359375 C 15.789062 -16.421875 15.109375 -15.054688 15.109375 -13.265625 C 15.109375 -11.503906 15.742188 -10.175781 17.015625 -9.28125 C 18.285156 -8.382812 19.894531 -7.9375 21.84375 -7.9375 Z M 21.84375 -7.9375 "/></g></g></g><g fill="#377dff" fill-opacity="1"><g transform="translate(305.416477, 109.372708)"><g><path d="M 5.09375 0 L 5.09375 -45.96875 L 17.453125 -45.96875 L 17.453125 -37.953125 L 17.921875 -37.953125 C 18.765625 -40.804688 20.164062 -42.960938 22.125 -44.421875 C 24.09375 -45.890625 26.375 -46.625 28.96875 -46.625 C 30.207031 -46.625 31.351562 -46.472656 32.40625 -46.171875 C 33.46875 -45.878906 34.414062 -45.472656 35.25 -44.953125 L 31.421875 -34.421875 C 30.828125 -34.722656 30.175781 -34.976562 29.46875 -35.1875 C 28.757812 -35.394531 27.96875 -35.5 27.09375 -35.5 C 24.507812 -35.5 22.328125 -34.617188 20.546875 -32.859375 C 18.765625 -31.109375 17.863281 -28.828125 17.84375 -26.015625 L 17.84375 0 Z M 5.09375 0 "/></g></g></g><g fill="#377dff" fill-opacity="1"><g transform="translate(341.539164, 109.372708)"><g><path d="M 18.203125 0.875 C 13.804688 0.875 10.160156 -0.269531 7.265625 -2.5625 C 4.378906 -4.863281 2.9375 -8.289062 2.9375 -12.84375 C 2.9375 -16.269531 3.742188 -18.960938 5.359375 -20.921875 C 6.972656 -22.878906 9.09375 -24.3125 11.71875 -25.21875 C 14.34375 -26.125 17.171875 -26.71875 20.203125 -27 C 24.191406 -27.394531 27.046875 -27.8125 28.765625 -28.25 C 30.484375 -28.6875 31.34375 -29.644531 31.34375 -31.125 L 31.34375 -31.3125 C 31.34375 -33.207031 30.75 -34.671875 29.5625 -35.703125 C 28.375 -36.742188 26.691406 -37.265625 24.515625 -37.265625 C 22.210938 -37.265625 20.382812 -36.765625 19.03125 -35.765625 C 17.675781 -34.765625 16.78125 -33.5 16.34375 -31.96875 L 4.546875 -32.921875 C 5.421875 -37.109375 7.597656 -40.425781 11.078125 -42.875 C 14.566406 -45.332031 19.066406 -46.5625 24.578125 -46.5625 C 27.984375 -46.5625 31.171875 -46.023438 34.140625 -44.953125 C 37.117188 -43.878906 39.519531 -42.195312 41.34375 -39.90625 C 43.175781 -37.625 44.09375 -34.65625 44.09375 -31 L 44.09375 0 L 32 0 L 32 -6.375 L 31.640625 -6.375 C 30.515625 -4.238281 28.835938 -2.492188 26.609375 -1.140625 C 24.390625 0.203125 21.585938 0.875 18.203125 0.875 Z M 21.84375 -7.9375 C 24.632812 -7.9375 26.925781 -8.75 28.71875 -10.375 C 30.519531 -12 31.421875 -14.019531 31.421875 -16.4375 L 31.421875 -21.3125 C 30.921875 -20.96875 30.144531 -20.664062 29.09375 -20.40625 C 28.050781 -20.144531 26.9375 -19.921875 25.75 -19.734375 C 24.5625 -19.546875 23.5 -19.382812 22.5625 -19.25 C 20.332031 -18.925781 18.53125 -18.296875 17.15625 -17.359375 C 15.789062 -16.421875 15.109375 -15.054688 15.109375 -13.265625 C 15.109375 -11.503906 15.742188 -10.175781 17.015625 -9.28125 C 18.285156 -8.382812 19.894531 -7.9375 21.84375 -7.9375 Z M 21.84375 -7.9375 "/></g></g></g><g fill="#377dff" fill-opacity="1"><g transform="translate(390.440957, 109.372708)"><g><path d="M 5.328125 0 L 5.328125 -61.296875 L 18.078125 -61.296875 L 18.078125 -38.25 L 18.46875 -38.25 C 19.039062 -39.507812 19.851562 -40.773438 20.90625 -42.046875 C 21.96875 -43.328125 23.367188 -44.398438 25.109375 -45.265625 C 26.847656 -46.128906 28.992188 -46.5625 31.546875 -46.5625 C 34.921875 -46.5625 38.015625 -45.6875 40.828125 -43.9375 C 43.640625 -42.195312 45.894531 -39.578125 47.59375 -36.078125 C 49.300781 -32.578125 50.15625 -28.191406 50.15625 -22.921875 C 50.15625 -17.796875 49.328125 -13.472656 47.671875 -9.953125 C 46.015625 -6.429688 43.78125 -3.765625 40.96875 -1.953125 C 38.15625 -0.148438 35.003906 0.75 31.515625 0.75 C 29.035156 0.75 26.929688 0.34375 25.203125 -0.46875 C 23.484375 -1.289062 22.078125 -2.328125 20.984375 -3.578125 C 19.898438 -4.828125 19.0625 -6.085938 18.46875 -7.359375 L 17.890625 -7.359375 L 17.890625 0 Z M 17.8125 -22.984375 C 17.8125 -18.890625 18.648438 -15.597656 20.328125 -13.109375 C 22.015625 -10.628906 24.394531 -9.390625 27.46875 -9.390625 C 30.601562 -9.390625 33 -10.648438 34.65625 -13.171875 C 36.3125 -15.703125 37.140625 -18.972656 37.140625 -22.984375 C 37.140625 -26.972656 36.316406 -30.207031 34.671875 -32.6875 C 33.023438 -35.175781 30.625 -36.421875 27.46875 -36.421875 C 24.382812 -36.421875 22.003906 -35.207031 20.328125 -32.78125 C 18.648438 -30.363281 17.8125 -27.097656 17.8125 -22.984375 Z M 17.8125 -22.984375 "/></g></g></g><g fill="#377dff" fill-opacity="1"><g transform="translate(443.981535, 109.372708)"><g><path d="M 17.84375 -61.296875 L 17.84375 0 L 5.09375 0 L 5.09375 -61.296875 Z M 17.84375 -61.296875 "/></g></g></g><g fill="#377dff" fill-opacity="1"><g transform="translate(466.906127, 109.372708)"><g><path d="M 26.03125 0.890625 C 21.320312 0.890625 17.257812 -0.0664062 13.84375 -1.984375 C 10.4375 -3.910156 7.816406 -6.644531 5.984375 -10.1875 C 4.148438 -13.726562 3.234375 -17.925781 3.234375 -22.78125 C 3.234375 -27.507812 4.148438 -31.65625 5.984375 -35.21875 C 7.816406 -38.789062 10.40625 -41.570312 13.75 -43.5625 C 17.09375 -45.5625 21.019531 -46.5625 25.53125 -46.5625 C 29.582031 -46.5625 33.238281 -45.703125 36.5 -43.984375 C 39.757812 -42.273438 42.347656 -39.6875 44.265625 -36.21875 C 46.179688 -32.757812 47.140625 -28.425781 47.140625 -23.21875 L 47.140625 -19.71875 L 15.828125 -19.71875 L 15.828125 -19.6875 C 15.828125 -16.257812 16.765625 -13.554688 18.640625 -11.578125 C 20.515625 -9.609375 23.050781 -8.625 26.25 -8.625 C 28.382812 -8.625 30.226562 -9.070312 31.78125 -9.96875 C 33.34375 -10.863281 34.441406 -12.191406 35.078125 -13.953125 L 46.875 -13.171875 C 45.96875 -8.898438 43.6875 -5.488281 40.03125 -2.9375 C 36.382812 -0.382812 31.71875 0.890625 26.03125 0.890625 Z M 15.828125 -27.625 L 35.140625 -27.625 C 35.117188 -30.351562 34.238281 -32.601562 32.5 -34.375 C 30.769531 -36.15625 28.515625 -37.046875 25.734375 -37.046875 C 22.898438 -37.046875 20.578125 -36.128906 18.765625 -34.296875 C 16.953125 -32.460938 15.972656 -30.238281 15.828125 -27.625 Z M 15.828125 -27.625 "/></g></g></g><g fill="#377dff" fill-opacity="1"><g transform="translate(517.274374, 109.372708)"><g><path d="M 43.34375 -32.859375 L 31.671875 -32.140625 C 31.347656 -33.617188 30.535156 -34.882812 29.234375 -35.9375 C 27.941406 -37 26.1875 -37.53125 23.96875 -37.53125 C 22 -37.53125 20.328125 -37.113281 18.953125 -36.28125 C 17.585938 -35.457031 16.914062 -34.359375 16.9375 -32.984375 C 16.914062 -31.890625 17.347656 -30.960938 18.234375 -30.203125 C 19.128906 -29.441406 20.644531 -28.832031 22.78125 -28.375 L 31.09375 -26.703125 C 39.9375 -24.878906 44.367188 -20.726562 44.390625 -14.25 C 44.390625 -11.238281 43.503906 -8.59375 41.734375 -6.3125 C 39.972656 -4.039062 37.554688 -2.269531 34.484375 -1 C 31.410156 0.257812 27.882812 0.890625 23.90625 0.890625 C 17.820312 0.890625 12.972656 -0.378906 9.359375 -2.921875 C 5.753906 -5.460938 3.648438 -8.925781 3.046875 -13.3125 L 15.59375 -13.984375 C 15.988281 -12.097656 16.910156 -10.675781 18.359375 -9.71875 C 19.804688 -8.769531 21.664062 -8.296875 23.9375 -8.296875 C 26.175781 -8.296875 27.976562 -8.734375 29.34375 -9.609375 C 30.707031 -10.484375 31.398438 -11.597656 31.421875 -12.953125 C 31.367188 -15.234375 29.40625 -16.757812 25.53125 -17.53125 L 17.5625 -19.125 C 8.664062 -20.894531 4.238281 -25.273438 4.28125 -32.265625 C 4.257812 -36.691406 6.03125 -40.179688 9.59375 -42.734375 C 13.15625 -45.285156 17.878906 -46.5625 23.765625 -46.5625 C 29.566406 -46.5625 34.140625 -45.332031 37.484375 -42.875 C 40.828125 -40.425781 42.78125 -37.085938 43.34375 -32.859375 Z M 43.34375 -32.859375 "/></g></g></g><g fill="#377dff" fill-opacity="1"><g transform="translate(564.619904, 109.372708)"><g><path d="M 12.546875 0.78125 C 10.566406 0.78125 8.867188 0.0820312 7.453125 -1.3125 C 6.035156 -2.707031 5.335938 -4.40625 5.359375 -6.40625 C 5.335938 -8.363281 6.035156 -10.039062 7.453125 -11.4375 C 8.867188 -12.832031 10.566406 -13.53125 12.546875 -13.53125 C 14.453125 -13.53125 16.117188 -12.832031 17.546875 -11.4375 C 18.972656 -10.039062 19.695312 -8.363281 19.71875 -6.40625 C 19.695312 -4.40625 18.972656 -2.707031 17.546875 -1.3125 C 16.117188 0.0820312 14.453125 0.78125 12.546875 0.78125 Z M 12.546875 0.78125 "/></g></g></g><g fill="#377dff" fill-opacity="1"><g transform="translate(589.699274, 109.372708)"><g><path d="M 17.84375 -61.296875 L 17.84375 0 L 5.09375 0 L 5.09375 -61.296875 Z M 17.84375 -61.296875 "/></g></g></g><g fill="#377dff" fill-opacity="1"><g transform="translate(612.623843, 109.372708)"><g><path d="M 18.203125 0.875 C 13.804688 0.875 10.160156 -0.269531 7.265625 -2.5625 C 4.378906 -4.863281 2.9375 -8.289062 2.9375 -12.84375 C 2.9375 -16.269531 3.742188 -18.960938 5.359375 -20.921875 C 6.972656 -22.878906 9.09375 -24.3125 11.71875 -25.21875 C 14.34375 -26.125 17.171875 -26.71875 20.203125 -27 C 24.191406 -27.394531 27.046875 -27.8125 28.765625 -28.25 C 30.484375 -28.6875 31.34375 -29.644531 31.34375 -31.125 L 31.34375 -31.3125 C 31.34375 -33.207031 30.75 -34.671875 29.5625 -35.703125 C 28.375 -36.742188 26.691406 -37.265625 24.515625 -37.265625 C 22.210938 -37.265625 20.382812 -36.765625 19.03125 -35.765625 C 17.675781 -34.765625 16.78125 -33.5 16.34375 -31.96875 L 4.546875 -32.921875 C 5.421875 -37.109375 7.597656 -40.425781 11.078125 -42.875 C 14.566406 -45.332031 19.066406 -46.5625 24.578125 -46.5625 C 27.984375 -46.5625 31.171875 -46.023438 34.140625 -44.953125 C 37.117188 -43.878906 39.519531 -42.195312 41.34375 -39.90625 C 43.175781 -37.625 44.09375 -34.65625 44.09375 -31 L 44.09375 0 L 32 0 L 32 -6.375 L 31.640625 -6.375 C 30.515625 -4.238281 28.835938 -2.492188 26.609375 -1.140625 C 24.390625 0.203125 21.585938 0.875 18.203125 0.875 Z M 21.84375 -7.9375 C 24.632812 -7.9375 26.925781 -8.75 28.71875 -10.375 C 30.519531 -12 31.421875 -14.019531 31.421875 -16.4375 L 31.421875 -21.3125 C 30.921875 -20.96875 30.144531 -20.664062 29.09375 -20.40625 C 28.050781 -20.144531 26.9375 -19.921875 25.75 -19.734375 C 24.5625 -19.546875 23.5 -19.382812 22.5625 -19.25 C 20.332031 -18.925781 18.53125 -18.296875 17.15625 -17.359375 C 15.789062 -16.421875 15.109375 -15.054688 15.109375 -13.265625 C 15.109375 -11.503906 15.742188 -10.175781 17.015625 -9.28125 C 18.285156 -8.382812 19.894531 -7.9375 21.84375 -7.9375 Z M 21.84375 -7.9375 "/></g></g></g></svg>