<svg xmlns="http://www.w3.org/2000/svg" xmlns:xlink="http://www.w3.org/1999/xlink" width="527" zoomAndPan="magnify" viewBox="0 0 395.25 89.249998" height="119" preserveAspectRatio="xMidYMid meet" version="1.0"><defs><g/><clipPath id="7ba40d1b55"><path d="M 1.273438 0 L 393.230469 0 L 393.230469 88.507812 L 1.273438 88.507812 Z M 1.273438 0 " clip-rule="nonzero"/></clipPath><clipPath id="5957b79bb9"><path d="M 1.273438 5.648438 L 77.136719 5.648438 L 77.136719 81.511719 L 1.273438 81.511719 Z M 1.273438 5.648438 " clip-rule="nonzero"/></clipPath></defs><g clip-path="url(#7ba40d1b55)"><path fill="#ffffff" d="M 1.273438 0 L 393.230469 0 L 393.230469 88.507812 L 1.273438 88.507812 Z M 1.273438 0 " fill-opacity="1" fill-rule="nonzero"/></g><g clip-path="url(#5957b79bb9)"><path fill="#377dff" d="M 39.269531 5.648438 C 18.316406 5.648438 1.273438 22.691406 1.273438 43.644531 C 1.273438 64.597656 18.316406 81.640625 39.269531 81.640625 C 60.222656 81.640625 77.265625 64.597656 77.265625 43.644531 C 77.265625 22.691406 60.222656 5.648438 39.269531 5.648438 Z M 58.765625 23.820312 L 59.207031 23.820312 C 59.523438 31.746094 55.90625 39.707031 48.675781 46.9375 L 48.640625 46.972656 L 48.609375 47.007812 C 47.195312 48.59375 46.144531 49.605469 44.863281 50.601562 L 44.226562 51.097656 L 44.226562 51.90625 C 44.226562 58.457031 42.453125 62.90625 38.101562 67.257812 L 37.617188 67.742188 L 37.617188 54.570312 L 30.546875 58.070312 L 24.667969 52.414062 L 28.34375 45.296875 L 15.175781 45.296875 L 15.660156 44.8125 C 20.007812 40.464844 24.457031 38.6875 31.011719 38.6875 L 31.753906 38.6875 L 32.242188 38.132812 C 33.53125 36.683594 34.664062 35.554688 35.980469 34.238281 C 42.988281 27.230469 50.445312 23.820312 58.765625 23.820312 Z M 45.878906 33.734375 C 45.441406 33.734375 45.019531 33.816406 44.613281 33.984375 C 44.207031 34.152344 43.851562 34.390625 43.542969 34.699219 C 43.230469 35.011719 42.992188 35.367188 42.824219 35.773438 C 42.65625 36.175781 42.574219 36.597656 42.574219 37.039062 C 42.574219 37.476562 42.65625 37.898438 42.824219 38.300781 C 42.992188 38.707031 43.230469 39.0625 43.542969 39.375 C 43.851562 39.683594 44.207031 39.921875 44.613281 40.089844 C 45.019531 40.257812 45.441406 40.339844 45.878906 40.339844 C 46.316406 40.339844 46.738281 40.257812 47.140625 40.089844 C 47.546875 39.921875 47.90625 39.683594 48.214844 39.375 C 48.523438 39.0625 48.761719 38.707031 48.929688 38.300781 C 49.097656 37.898438 49.183594 37.476562 49.183594 37.039062 C 49.183594 36.597656 49.097656 36.175781 48.929688 35.773438 C 48.761719 35.367188 48.523438 35.011719 48.214844 34.699219 C 47.90625 34.390625 47.546875 34.152344 47.140625 33.984375 C 46.738281 33.816406 46.316406 33.734375 45.878906 33.734375 Z M 22.375 54.835938 L 23.742188 56.199219 C 22.796875 57.714844 22.648438 59.042969 22.765625 60.109375 C 23.855469 60.230469 25.207031 60.167969 26.761719 59.222656 L 28.113281 60.570312 C 27.828125 60.9375 27.53125 61.292969 27.226562 61.597656 C 24.582031 64.242188 21.113281 65.394531 17.8125 65.066406 C 17.644531 61.761719 18.800781 58.292969 21.445312 55.652344 C 21.722656 55.375 22.042969 55.097656 22.375 54.835938 Z M 22.375 54.835938 " fill-opacity="1" fill-rule="nonzero"/></g><g fill="#377dff" fill-opacity="1"><g transform="translate(77.996936, 55.807678)"><g><path d="M 9.671875 -33.890625 L 9.671875 0 L 3.640625 0 L 3.640625 -33.890625 Z M 9.671875 -33.890625 "/></g></g></g><g fill="#377dff" fill-opacity="1"><g transform="translate(91.307253, 55.807678)"><g><path d="M 15.609375 -23.546875 C 19.210938 -23.546875 21.601562 -22.128906 22.78125 -19.296875 C 24.382812 -22.128906 26.910156 -23.546875 30.359375 -23.546875 C 35.878906 -23.546875 38.640625 -20.210938 38.640625 -13.546875 L 38.640625 0 L 32.890625 0 L 32.890625 -13.171875 C 32.890625 -16.648438 31.46875 -18.390625 28.625 -18.390625 C 27.09375 -18.390625 25.890625 -17.867188 25.015625 -16.828125 C 24.140625 -15.785156 23.703125 -14.328125 23.703125 -12.453125 L 23.703125 0 L 17.953125 0 L 17.953125 -13.828125 C 17.953125 -15.265625 17.613281 -16.382812 16.9375 -17.1875 C 16.269531 -17.988281 15.300781 -18.390625 14.03125 -18.390625 C 12.238281 -18.390625 10.910156 -17.828125 10.046875 -16.703125 C 9.191406 -15.585938 8.765625 -14.203125 8.765625 -12.546875 L 8.765625 0 L 3.015625 0 L 3.015625 -22.984375 L 8.46875 -22.984375 L 8.46875 -19.390625 L 8.5625 -19.390625 C 9.90625 -22.160156 12.253906 -23.546875 15.609375 -23.546875 Z M 15.609375 -23.546875 "/></g></g></g><g fill="#377dff" fill-opacity="1"><g transform="translate(132.961847, 55.807678)"><g><path d="M 16.75 -23.546875 C 20.070312 -23.546875 22.785156 -22.429688 24.890625 -20.203125 C 27.003906 -17.972656 28.0625 -15.066406 28.0625 -11.484375 C 28.0625 -8.078125 27.03125 -5.210938 24.96875 -2.890625 C 22.90625 -0.578125 20.234375 0.578125 16.953125 0.578125 C 13.597656 0.578125 10.992188 -0.585938 9.140625 -2.921875 L 9 -2.921875 L 9 10.921875 L 3.25 10.921875 L 3.25 -22.984375 L 8.71875 -22.984375 L 8.71875 -19.53125 L 8.8125 -19.53125 C 10.5 -22.207031 13.144531 -23.546875 16.75 -23.546875 Z M 8.8125 -11.484375 C 8.8125 -9.503906 9.441406 -7.859375 10.703125 -6.546875 C 11.960938 -5.242188 13.582031 -4.59375 15.5625 -4.59375 C 17.445312 -4.59375 19.039062 -5.238281 20.34375 -6.53125 C 21.65625 -7.820312 22.3125 -9.472656 22.3125 -11.484375 C 22.3125 -13.429688 21.664062 -15.066406 20.375 -16.390625 C 19.082031 -17.722656 17.460938 -18.390625 15.515625 -18.390625 C 13.628906 -18.390625 12.039062 -17.734375 10.75 -16.421875 C 9.457031 -15.109375 8.8125 -13.460938 8.8125 -11.484375 Z M 8.8125 -11.484375 "/></g></g></g><g fill="#377dff" fill-opacity="1"><g transform="translate(163.125517, 55.807678)"><g><path d="M 12.96875 -23.546875 C 16.257812 -23.546875 18.71875 -22.753906 20.34375 -21.171875 C 21.96875 -19.597656 22.78125 -17.117188 22.78125 -13.734375 L 22.78125 0 L 17.625 0 L 17.625 -3.15625 L 17.46875 -3.15625 C 15.90625 -0.664062 13.453125 0.578125 10.109375 0.578125 C 7.617188 0.578125 5.597656 -0.0664062 4.046875 -1.359375 C 2.492188 -2.648438 1.71875 -4.300781 1.71875 -6.3125 C 1.71875 -9 2.832031 -11.003906 5.0625 -12.328125 C 7.300781 -13.648438 10.894531 -14.3125 15.84375 -14.3125 L 17.625 -14.3125 L 17.625 -14.984375 C 17.625 -16.328125 17.144531 -17.375 16.1875 -18.125 C 15.226562 -18.875 13.953125 -19.25 12.359375 -19.25 C 9.992188 -19.25 7.945312 -18.453125 6.21875 -16.859375 L 3.203125 -19.875 C 5.597656 -22.320312 8.851562 -23.546875 12.96875 -23.546875 Z M 7.46875 -6.75 C 7.46875 -5.757812 7.875 -5.007812 8.6875 -4.5 C 9.5 -3.988281 10.445312 -3.734375 11.53125 -3.734375 C 13.507812 -3.734375 14.960938 -4.21875 15.890625 -5.1875 C 16.816406 -6.164062 17.28125 -7.390625 17.28125 -8.859375 L 17.28125 -10.296875 L 15.609375 -10.296875 C 10.179688 -10.296875 7.46875 -9.113281 7.46875 -6.75 Z M 7.46875 -6.75 "/></g></g></g><g fill="#377dff" fill-opacity="1"><g transform="translate(188.836459, 55.807678)"><g><path d="M 15.890625 -23.546875 C 16.367188 -23.546875 17.054688 -23.4375 17.953125 -23.21875 L 17.953125 -17.671875 C 16.960938 -17.953125 16.035156 -18.09375 15.171875 -18.09375 C 13.296875 -18.09375 11.796875 -17.535156 10.671875 -16.421875 C 9.554688 -15.304688 9 -13.820312 9 -11.96875 L 9 0 L 3.25 0 L 3.25 -22.984375 L 9 -22.984375 L 9 -19.34375 L 9.09375 -19.34375 C 9.726562 -20.6875 10.632812 -21.722656 11.8125 -22.453125 C 13 -23.179688 14.359375 -23.546875 15.890625 -23.546875 Z M 15.890625 -23.546875 "/></g></g></g><g fill="#377dff" fill-opacity="1"><g transform="translate(207.461326, 55.807678)"><g><path d="M 12.96875 -23.546875 C 16.257812 -23.546875 18.71875 -22.753906 20.34375 -21.171875 C 21.96875 -19.597656 22.78125 -17.117188 22.78125 -13.734375 L 22.78125 0 L 17.625 0 L 17.625 -3.15625 L 17.46875 -3.15625 C 15.90625 -0.664062 13.453125 0.578125 10.109375 0.578125 C 7.617188 0.578125 5.597656 -0.0664062 4.046875 -1.359375 C 2.492188 -2.648438 1.71875 -4.300781 1.71875 -6.3125 C 1.71875 -9 2.832031 -11.003906 5.0625 -12.328125 C 7.300781 -13.648438 10.894531 -14.3125 15.84375 -14.3125 L 17.625 -14.3125 L 17.625 -14.984375 C 17.625 -16.328125 17.144531 -17.375 16.1875 -18.125 C 15.226562 -18.875 13.953125 -19.25 12.359375 -19.25 C 9.992188 -19.25 7.945312 -18.453125 6.21875 -16.859375 L 3.203125 -19.875 C 5.597656 -22.320312 8.851562 -23.546875 12.96875 -23.546875 Z M 7.46875 -6.75 C 7.46875 -5.757812 7.875 -5.007812 8.6875 -4.5 C 9.5 -3.988281 10.445312 -3.734375 11.53125 -3.734375 C 13.507812 -3.734375 14.960938 -4.21875 15.890625 -5.1875 C 16.816406 -6.164062 17.28125 -7.390625 17.28125 -8.859375 L 17.28125 -10.296875 L 15.609375 -10.296875 C 10.179688 -10.296875 7.46875 -9.113281 7.46875 -6.75 Z M 7.46875 -6.75 "/></g></g></g><g fill="#377dff" fill-opacity="1"><g transform="translate(233.172268, 55.807678)"><g><path d="M 9 -36.1875 L 9 -20.0625 L 9.140625 -20.0625 C 10.992188 -22.382812 13.597656 -23.546875 16.953125 -23.546875 C 20.203125 -23.546875 22.863281 -22.378906 24.9375 -20.046875 C 27.019531 -17.722656 28.0625 -14.867188 28.0625 -11.484375 C 28.0625 -7.910156 27.003906 -5.003906 24.890625 -2.765625 C 22.785156 -0.535156 20.070312 0.578125 16.75 0.578125 C 13.113281 0.578125 10.46875 -0.765625 8.8125 -3.453125 L 8.71875 -3.453125 L 8.71875 0 L 3.25 0 L 3.25 -36.1875 Z M 8.8125 -11.484375 C 8.8125 -9.535156 9.441406 -7.898438 10.703125 -6.578125 C 11.960938 -5.253906 13.582031 -4.59375 15.5625 -4.59375 C 17.507812 -4.59375 19.117188 -5.253906 20.390625 -6.578125 C 21.671875 -7.898438 22.3125 -9.535156 22.3125 -11.484375 C 22.3125 -13.460938 21.679688 -15.109375 20.421875 -16.421875 C 19.160156 -17.734375 17.523438 -18.390625 15.515625 -18.390625 C 13.628906 -18.390625 12.039062 -17.734375 10.75 -16.421875 C 9.457031 -15.109375 8.8125 -13.460938 8.8125 -11.484375 Z M 8.8125 -11.484375 "/></g></g></g><g fill="#377dff" fill-opacity="1"><g transform="translate(263.335939, 55.807678)"><g><path d="M 9.09375 -36.1875 L 9.09375 0 L 3.34375 0 L 3.34375 -36.1875 Z M 9.09375 -36.1875 "/></g></g></g><g fill="#377dff" fill-opacity="1"><g transform="translate(275.784444, 55.807678)"><g><path d="M 14.609375 -23.546875 C 18.046875 -23.546875 20.695312 -22.394531 22.5625 -20.09375 C 24.4375 -17.800781 25.375 -14.804688 25.375 -11.109375 L 25.375 -9.484375 L 7.84375 -9.484375 C 8.039062 -7.816406 8.703125 -6.488281 9.828125 -5.5 C 10.960938 -4.507812 12.363281 -4.015625 14.03125 -4.015625 C 16.457031 -4.015625 18.515625 -5.054688 20.203125 -7.140625 L 24.328125 -4.015625 C 21.835938 -0.953125 18.597656 0.578125 14.609375 0.578125 C 11.085938 0.578125 8.125 -0.535156 5.71875 -2.765625 C 3.3125 -5.003906 2.109375 -7.910156 2.109375 -11.484375 C 2.109375 -15.066406 3.3125 -17.972656 5.71875 -20.203125 C 8.125 -22.429688 11.085938 -23.546875 14.609375 -23.546875 Z M 19.625 -13.78125 C 19.59375 -15.601562 19.035156 -16.96875 17.953125 -17.875 C 16.867188 -18.789062 15.460938 -19.25 13.734375 -19.25 C 12.015625 -19.25 10.660156 -18.742188 9.671875 -17.734375 C 8.679688 -16.734375 8.070312 -15.414062 7.84375 -13.78125 Z M 19.625 -13.78125 "/></g></g></g><g fill="#377dff" fill-opacity="1"><g transform="translate(303.266899, 55.807678)"><g><path d="M 11.109375 -23.546875 C 14.867188 -23.546875 17.613281 -22.382812 19.34375 -20.0625 L 15.515625 -16.609375 C 14.359375 -18.171875 12.859375 -18.953125 11.015625 -18.953125 C 10.085938 -18.953125 9.296875 -18.726562 8.640625 -18.28125 C 7.984375 -17.84375 7.65625 -17.253906 7.65625 -16.515625 C 7.65625 -15.398438 8.789062 -14.601562 11.0625 -14.125 L 13.125 -13.640625 C 15.644531 -13.097656 17.429688 -12.257812 18.484375 -11.125 C 19.535156 -10 20.0625 -8.554688 20.0625 -6.796875 C 20.0625 -4.566406 19.164062 -2.78125 17.375 -1.4375 C 15.59375 -0.09375 13.171875 0.578125 10.109375 0.578125 C 6.242188 0.578125 3.273438 -0.601562 1.203125 -2.96875 L 5.03125 -6.5625 C 6.019531 -5.476562 6.925781 -4.734375 7.75 -4.328125 C 8.582031 -3.929688 9.492188 -3.734375 10.484375 -3.734375 C 11.535156 -3.734375 12.4375 -3.972656 13.1875 -4.453125 C 13.9375 -4.929688 14.3125 -5.570312 14.3125 -6.375 C 14.3125 -7.675781 13.128906 -8.597656 10.765625 -9.140625 C 7.703125 -9.847656 5.785156 -10.398438 5.015625 -10.796875 C 4.253906 -11.191406 3.640625 -11.664062 3.171875 -12.21875 C 2.710938 -12.78125 2.390625 -13.390625 2.203125 -14.046875 C 2.015625 -14.703125 1.921875 -15.398438 1.921875 -16.140625 C 1.921875 -18.398438 2.789062 -20.195312 4.53125 -21.53125 C 6.269531 -22.875 8.460938 -23.546875 11.109375 -23.546875 Z M 11.109375 -23.546875 "/></g></g></g><g fill="#377dff" fill-opacity="1"><g transform="translate(324.525124, 55.807678)"><g><path d="M 7.078125 -7.078125 C 8.109375 -7.078125 9.003906 -6.734375 9.765625 -6.046875 C 10.535156 -5.367188 10.921875 -4.503906 10.921875 -3.453125 C 10.921875 -2.390625 10.535156 -1.5 9.765625 -0.78125 C 9.003906 -0.0703125 8.109375 0.28125 7.078125 0.28125 C 6.054688 0.28125 5.160156 -0.0664062 4.390625 -0.765625 C 3.628906 -1.460938 3.25 -2.320312 3.25 -3.34375 C 3.25 -4.40625 3.628906 -5.289062 4.390625 -6 C 5.160156 -6.71875 6.054688 -7.078125 7.078125 -7.078125 Z M 7.078125 -7.078125 "/></g></g></g><g fill="#377dff" fill-opacity="1"><g transform="translate(338.697274, 55.807678)"><g><path d="M 9.09375 -36.1875 L 9.09375 0 L 3.34375 0 L 3.34375 -36.1875 Z M 9.09375 -36.1875 "/></g></g></g><g fill="#377dff" fill-opacity="1"><g transform="translate(351.14578, 55.807678)"><g><path d="M 12.96875 -23.546875 C 16.257812 -23.546875 18.71875 -22.753906 20.34375 -21.171875 C 21.96875 -19.597656 22.78125 -17.117188 22.78125 -13.734375 L 22.78125 0 L 17.625 0 L 17.625 -3.15625 L 17.46875 -3.15625 C 15.90625 -0.664062 13.453125 0.578125 10.109375 0.578125 C 7.617188 0.578125 5.597656 -0.0664062 4.046875 -1.359375 C 2.492188 -2.648438 1.71875 -4.300781 1.71875 -6.3125 C 1.71875 -9 2.832031 -11.003906 5.0625 -12.328125 C 7.300781 -13.648438 10.894531 -14.3125 15.84375 -14.3125 L 17.625 -14.3125 L 17.625 -14.984375 C 17.625 -16.328125 17.144531 -17.375 16.1875 -18.125 C 15.226562 -18.875 13.953125 -19.25 12.359375 -19.25 C 9.992188 -19.25 7.945312 -18.453125 6.21875 -16.859375 L 3.203125 -19.875 C 5.597656 -22.320312 8.851562 -23.546875 12.96875 -23.546875 Z M 7.46875 -6.75 C 7.46875 -5.757812 7.875 -5.007812 8.6875 -4.5 C 9.5 -3.988281 10.445312 -3.734375 11.53125 -3.734375 C 13.507812 -3.734375 14.960938 -4.21875 15.890625 -5.1875 C 16.816406 -6.164062 17.28125 -7.390625 17.28125 -8.859375 L 17.28125 -10.296875 L 15.609375 -10.296875 C 10.179688 -10.296875 7.46875 -9.113281 7.46875 -6.75 Z M 7.46875 -6.75 "/></g></g></g></svg>