<svg xmlns="http://www.w3.org/2000/svg" xmlns:xlink="http://www.w3.org/1999/xlink" width="504" zoomAndPan="magnify" viewBox="0 0 378 73.499998" height="98" preserveAspectRatio="xMidYMid meet" version="1.0"><defs><g/><clipPath id="cdd5e87286"><path d="M 1.277344 0 L 376.722656 0 L 376.722656 73.003906 L 1.277344 73.003906 Z M 1.277344 0 " clip-rule="nonzero"/></clipPath><clipPath id="9dd221be18"><path d="M 1.277344 4.6875 L 64.597656 4.6875 L 64.597656 68 L 1.277344 68 Z M 1.277344 4.6875 " clip-rule="nonzero"/></clipPath></defs><g clip-path="url(#cdd5e87286)"><path fill="#ffffff" d="M 1.277344 0 L 376.722656 0 L 376.722656 73.003906 L 1.277344 73.003906 Z M 1.277344 0 " fill-opacity="1" fill-rule="nonzero"/></g><g clip-path="url(#9dd221be18)"><path fill="#377dff" d="M 32.792969 4.6875 C 15.414062 4.6875 1.277344 18.824219 1.277344 36.199219 C 1.277344 53.578125 15.414062 67.714844 32.792969 67.714844 C 50.167969 67.714844 64.304688 53.578125 64.304688 36.199219 C 64.304688 18.824219 50.167969 4.6875 32.792969 4.6875 Z M 48.960938 19.757812 L 49.328125 19.757812 C 49.589844 26.332031 46.589844 32.933594 40.59375 38.929688 L 40.535156 38.988281 C 39.367188 40.304688 38.492188 41.140625 37.429688 41.96875 L 36.902344 42.382812 L 36.902344 43.050781 C 36.902344 48.488281 35.429688 52.175781 31.824219 55.785156 L 31.421875 56.1875 L 31.421875 45.261719 L 25.554688 48.164062 L 20.679688 43.472656 L 23.730469 37.570312 L 12.804688 37.570312 L 13.207031 37.167969 C 16.816406 33.5625 20.503906 32.089844 25.941406 32.089844 L 26.554688 32.089844 L 26.960938 31.628906 C 28.03125 30.429688 28.972656 29.488281 30.0625 28.398438 C 35.875 22.585938 42.058594 19.757812 48.960938 19.757812 Z M 38.273438 27.980469 C 37.910156 27.980469 37.558594 28.046875 37.222656 28.1875 C 36.886719 28.328125 36.589844 28.523438 36.335938 28.78125 C 36.078125 29.039062 35.878906 29.335938 35.738281 29.671875 C 35.601562 30.007812 35.53125 30.355469 35.53125 30.71875 C 35.53125 31.082031 35.601562 31.433594 35.738281 31.769531 C 35.878906 32.105469 36.078125 32.398438 36.335938 32.65625 C 36.589844 32.914062 36.886719 33.113281 37.222656 33.25 C 37.558594 33.390625 37.910156 33.460938 38.273438 33.460938 C 38.636719 33.460938 38.984375 33.390625 39.320312 33.25 C 39.65625 33.113281 39.953125 32.914062 40.210938 32.65625 C 40.464844 32.398438 40.664062 32.105469 40.804688 31.769531 C 40.941406 31.433594 41.011719 31.082031 41.011719 30.71875 C 41.011719 30.355469 40.941406 30.007812 40.804688 29.671875 C 40.664062 29.335938 40.464844 29.039062 40.210938 28.78125 C 39.953125 28.523438 39.65625 28.328125 39.320312 28.1875 C 38.984375 28.046875 38.636719 27.980469 38.273438 27.980469 Z M 18.777344 45.480469 L 19.910156 46.613281 C 19.128906 47.871094 19.003906 48.972656 19.101562 49.855469 C 20.003906 49.957031 21.128906 49.90625 22.414062 49.121094 L 23.535156 50.238281 C 23.300781 50.542969 23.054688 50.839844 22.800781 51.089844 C 20.609375 53.28125 17.734375 54.242188 14.992188 53.96875 C 14.855469 51.226562 15.8125 48.351562 18.003906 46.15625 C 18.234375 45.929688 18.503906 45.699219 18.777344 45.480469 Z M 18.777344 45.480469 " fill-opacity="1" fill-rule="nonzero"/></g><g fill="#377dff" fill-opacity="1"><g transform="translate(65.951763, 46.351788)"><g><path d="M 8.015625 -28.125 L 8.015625 0 L 3.015625 0 L 3.015625 -28.125 Z M 8.015625 -28.125 "/></g></g></g><g fill="#377dff" fill-opacity="1"><g transform="translate(76.989818, 46.351788)"><g><path d="M 12.953125 -19.546875 C 15.941406 -19.546875 17.925781 -18.363281 18.90625 -16 C 20.226562 -18.363281 22.320312 -19.546875 25.1875 -19.546875 C 29.757812 -19.546875 32.046875 -16.773438 32.046875 -11.234375 L 32.046875 0 L 27.28125 0 L 27.28125 -10.921875 C 27.28125 -13.804688 26.101562 -15.25 23.75 -15.25 C 22.476562 -15.25 21.476562 -14.816406 20.75 -13.953125 C 20.019531 -13.097656 19.65625 -11.890625 19.65625 -10.328125 L 19.65625 0 L 14.890625 0 L 14.890625 -11.484375 C 14.890625 -12.671875 14.609375 -13.59375 14.046875 -14.25 C 13.492188 -14.914062 12.691406 -15.25 11.640625 -15.25 C 10.148438 -15.25 9.046875 -14.785156 8.328125 -13.859375 C 7.617188 -12.929688 7.265625 -11.78125 7.265625 -10.40625 L 7.265625 0 L 2.5 0 L 2.5 -19.0625 L 7.03125 -19.0625 L 7.03125 -16.09375 L 7.109375 -16.09375 C 8.222656 -18.394531 10.171875 -19.546875 12.953125 -19.546875 Z M 12.953125 -19.546875 "/></g></g></g><g fill="#377dff" fill-opacity="1"><g transform="translate(111.533372, 46.351788)"><g><path d="M 13.90625 -19.546875 C 16.65625 -19.546875 18.90625 -18.617188 20.65625 -16.765625 C 22.40625 -14.910156 23.28125 -12.5 23.28125 -9.53125 C 23.28125 -6.695312 22.425781 -4.316406 20.71875 -2.390625 C 19.007812 -0.472656 16.789062 0.484375 14.0625 0.484375 C 11.28125 0.484375 9.125 -0.484375 7.59375 -2.421875 L 7.46875 -2.421875 L 7.46875 9.0625 L 2.703125 9.0625 L 2.703125 -19.0625 L 7.234375 -19.0625 L 7.234375 -16.203125 L 7.3125 -16.203125 C 8.707031 -18.429688 10.90625 -19.546875 13.90625 -19.546875 Z M 7.3125 -9.53125 C 7.3125 -7.882812 7.832031 -6.519531 8.875 -5.4375 C 9.925781 -4.351562 11.269531 -3.8125 12.90625 -3.8125 C 14.46875 -3.8125 15.789062 -4.347656 16.875 -5.421875 C 17.96875 -6.492188 18.515625 -7.863281 18.515625 -9.53125 C 18.515625 -11.144531 17.976562 -12.5 16.90625 -13.59375 C 15.832031 -14.695312 14.488281 -15.25 12.875 -15.25 C 11.3125 -15.25 9.992188 -14.707031 8.921875 -13.625 C 7.847656 -12.539062 7.3125 -11.175781 7.3125 -9.53125 Z M 7.3125 -9.53125 "/></g></g></g><g fill="#377dff" fill-opacity="1"><g transform="translate(136.547664, 46.351788)"><g><path d="M 10.765625 -19.546875 C 13.492188 -19.546875 15.53125 -18.890625 16.875 -17.578125 C 18.226562 -16.265625 18.90625 -14.207031 18.90625 -11.40625 L 18.90625 0 L 14.609375 0 L 14.609375 -2.625 L 14.5 -2.625 C 13.195312 -0.550781 11.15625 0.484375 8.375 0.484375 C 6.3125 0.484375 4.640625 -0.0507812 3.359375 -1.125 C 2.078125 -2.195312 1.4375 -3.570312 1.4375 -5.25 C 1.4375 -7.46875 2.359375 -9.125 4.203125 -10.21875 C 6.054688 -11.320312 9.035156 -11.875 13.140625 -11.875 L 14.609375 -11.875 L 14.609375 -12.4375 C 14.609375 -13.539062 14.210938 -14.40625 13.421875 -15.03125 C 12.628906 -15.65625 11.570312 -15.96875 10.25 -15.96875 C 8.289062 -15.96875 6.59375 -15.304688 5.15625 -13.984375 L 2.65625 -16.484375 C 4.644531 -18.523438 7.347656 -19.546875 10.765625 -19.546875 Z M 6.203125 -5.59375 C 6.203125 -4.78125 6.535156 -4.160156 7.203125 -3.734375 C 7.878906 -3.304688 8.671875 -3.09375 9.578125 -3.09375 C 11.210938 -3.09375 12.414062 -3.492188 13.1875 -4.296875 C 13.957031 -5.109375 14.34375 -6.125 14.34375 -7.34375 L 14.34375 -8.546875 L 12.953125 -8.546875 C 8.453125 -8.546875 6.203125 -7.5625 6.203125 -5.59375 Z M 6.203125 -5.59375 "/></g></g></g><g fill="#377dff" fill-opacity="1"><g transform="translate(157.86937, 46.351788)"><g><path d="M 13.1875 -19.546875 C 13.582031 -19.546875 14.148438 -19.453125 14.890625 -19.265625 L 14.890625 -14.65625 C 14.066406 -14.894531 13.300781 -15.015625 12.59375 -15.015625 C 11.03125 -15.015625 9.785156 -14.550781 8.859375 -13.625 C 7.929688 -12.695312 7.46875 -11.46875 7.46875 -9.9375 L 7.46875 0 L 2.703125 0 L 2.703125 -19.0625 L 7.46875 -19.0625 L 7.46875 -16.046875 L 7.546875 -16.046875 C 8.078125 -17.160156 8.832031 -18.019531 9.8125 -18.625 C 10.789062 -19.238281 11.914062 -19.546875 13.1875 -19.546875 Z M 13.1875 -19.546875 "/></g></g></g><g fill="#377dff" fill-opacity="1"><g transform="translate(173.314705, 46.351788)"><g><path d="M 10.765625 -19.546875 C 13.492188 -19.546875 15.53125 -18.890625 16.875 -17.578125 C 18.226562 -16.265625 18.90625 -14.207031 18.90625 -11.40625 L 18.90625 0 L 14.609375 0 L 14.609375 -2.625 L 14.5 -2.625 C 13.195312 -0.550781 11.15625 0.484375 8.375 0.484375 C 6.3125 0.484375 4.640625 -0.0507812 3.359375 -1.125 C 2.078125 -2.195312 1.4375 -3.570312 1.4375 -5.25 C 1.4375 -7.46875 2.359375 -9.125 4.203125 -10.21875 C 6.054688 -11.320312 9.035156 -11.875 13.140625 -11.875 L 14.609375 -11.875 L 14.609375 -12.4375 C 14.609375 -13.539062 14.210938 -14.40625 13.421875 -15.03125 C 12.628906 -15.65625 11.570312 -15.96875 10.25 -15.96875 C 8.289062 -15.96875 6.59375 -15.304688 5.15625 -13.984375 L 2.65625 -16.484375 C 4.644531 -18.523438 7.347656 -19.546875 10.765625 -19.546875 Z M 6.203125 -5.59375 C 6.203125 -4.78125 6.535156 -4.160156 7.203125 -3.734375 C 7.878906 -3.304688 8.671875 -3.09375 9.578125 -3.09375 C 11.210938 -3.09375 12.414062 -3.492188 13.1875 -4.296875 C 13.957031 -5.109375 14.34375 -6.125 14.34375 -7.34375 L 14.34375 -8.546875 L 12.953125 -8.546875 C 8.453125 -8.546875 6.203125 -7.5625 6.203125 -5.59375 Z M 6.203125 -5.59375 "/></g></g></g><g fill="#377dff" fill-opacity="1"><g transform="translate(194.636411, 46.351788)"><g><path d="M 7.46875 -30.03125 L 7.46875 -16.640625 L 7.59375 -16.640625 C 9.125 -18.578125 11.28125 -19.546875 14.0625 -19.546875 C 16.757812 -19.546875 18.96875 -18.578125 20.6875 -16.640625 C 22.414062 -14.710938 23.28125 -12.34375 23.28125 -9.53125 C 23.28125 -6.5625 22.40625 -4.148438 20.65625 -2.296875 C 18.90625 -0.441406 16.65625 0.484375 13.90625 0.484375 C 10.882812 0.484375 8.6875 -0.628906 7.3125 -2.859375 L 7.234375 -2.859375 L 7.234375 0 L 2.703125 0 L 2.703125 -30.03125 Z M 7.3125 -9.53125 C 7.3125 -7.914062 7.832031 -6.554688 8.875 -5.453125 C 9.925781 -4.359375 11.269531 -3.8125 12.90625 -3.8125 C 14.519531 -3.8125 15.859375 -4.359375 16.921875 -5.453125 C 17.984375 -6.554688 18.515625 -7.914062 18.515625 -9.53125 C 18.515625 -11.175781 17.988281 -12.539062 16.9375 -13.625 C 15.894531 -14.707031 14.539062 -15.25 12.875 -15.25 C 11.3125 -15.25 9.992188 -14.707031 8.921875 -13.625 C 7.847656 -12.539062 7.3125 -11.175781 7.3125 -9.53125 Z M 7.3125 -9.53125 "/></g></g></g><g fill="#377dff" fill-opacity="1"><g transform="translate(219.650703, 46.351788)"><g><path d="M 7.546875 -30.03125 L 7.546875 0 L 2.78125 0 L 2.78125 -30.03125 Z M 7.546875 -30.03125 "/></g></g></g><g fill="#377dff" fill-opacity="1"><g transform="translate(229.974074, 46.351788)"><g><path d="M 12.109375 -19.546875 C 14.972656 -19.546875 17.175781 -18.59375 18.71875 -16.6875 C 20.269531 -14.78125 21.046875 -12.289062 21.046875 -9.21875 L 21.046875 -7.859375 L 6.515625 -7.859375 C 6.671875 -6.484375 7.21875 -5.382812 8.15625 -4.5625 C 9.101562 -3.75 10.265625 -3.34375 11.640625 -3.34375 C 13.648438 -3.34375 15.359375 -4.203125 16.765625 -5.921875 L 20.171875 -3.34375 C 18.109375 -0.789062 15.421875 0.484375 12.109375 0.484375 C 9.203125 0.484375 6.75 -0.441406 4.75 -2.296875 C 2.75 -4.148438 1.75 -6.5625 1.75 -9.53125 C 1.75 -12.5 2.75 -14.910156 4.75 -16.765625 C 6.75 -18.617188 9.203125 -19.546875 12.109375 -19.546875 Z M 16.28125 -11.4375 C 16.257812 -12.945312 15.796875 -14.078125 14.890625 -14.828125 C 13.992188 -15.585938 12.832031 -15.96875 11.40625 -15.96875 C 9.96875 -15.96875 8.835938 -15.550781 8.015625 -14.71875 C 7.203125 -13.882812 6.703125 -12.789062 6.515625 -11.4375 Z M 16.28125 -11.4375 "/></g></g></g><g fill="#377dff" fill-opacity="1"><g transform="translate(252.764869, 46.351788)"><g><path d="M 9.21875 -19.546875 C 12.34375 -19.546875 14.617188 -18.578125 16.046875 -16.640625 L 12.875 -13.78125 C 11.914062 -15.082031 10.671875 -15.734375 9.140625 -15.734375 C 8.367188 -15.734375 7.710938 -15.546875 7.171875 -15.171875 C 6.628906 -14.796875 6.359375 -14.304688 6.359375 -13.703125 C 6.359375 -12.773438 7.296875 -12.113281 9.171875 -11.71875 L 10.890625 -11.3125 C 12.972656 -10.863281 14.453125 -10.171875 15.328125 -9.234375 C 16.203125 -8.296875 16.640625 -7.097656 16.640625 -5.640625 C 16.640625 -3.785156 15.894531 -2.300781 14.40625 -1.1875 C 12.925781 -0.0703125 10.914062 0.484375 8.375 0.484375 C 5.175781 0.484375 2.71875 -0.5 1 -2.46875 L 4.171875 -5.4375 C 4.992188 -4.539062 5.75 -3.925781 6.4375 -3.59375 C 7.125 -3.257812 7.878906 -3.09375 8.703125 -3.09375 C 9.578125 -3.09375 10.320312 -3.289062 10.9375 -3.6875 C 11.5625 -4.09375 11.875 -4.625 11.875 -5.28125 C 11.875 -6.363281 10.894531 -7.132812 8.9375 -7.59375 C 6.394531 -8.164062 4.804688 -8.617188 4.171875 -8.953125 C 3.535156 -9.285156 3.023438 -9.679688 2.640625 -10.140625 C 2.253906 -10.609375 1.984375 -11.113281 1.828125 -11.65625 C 1.671875 -12.195312 1.59375 -12.773438 1.59375 -13.390625 C 1.59375 -15.265625 2.3125 -16.757812 3.75 -17.875 C 5.195312 -18.988281 7.019531 -19.546875 9.21875 -19.546875 Z M 9.21875 -19.546875 "/></g></g></g><g fill="#377dff" fill-opacity="1"><g transform="translate(270.393988, 46.351788)"><g><path d="M 5.875 -5.875 C 6.726562 -5.875 7.472656 -5.585938 8.109375 -5.015625 C 8.742188 -4.453125 9.0625 -3.734375 9.0625 -2.859375 C 9.0625 -1.984375 8.742188 -1.25 8.109375 -0.65625 C 7.472656 -0.0625 6.726562 0.234375 5.875 0.234375 C 5.03125 0.234375 4.289062 -0.0546875 3.65625 -0.640625 C 3.019531 -1.222656 2.703125 -1.9375 2.703125 -2.78125 C 2.703125 -3.65625 3.019531 -4.390625 3.65625 -4.984375 C 4.289062 -5.578125 5.03125 -5.875 5.875 -5.875 Z M 5.875 -5.875 "/></g></g></g><g fill="#377dff" fill-opacity="1"><g transform="translate(282.146746, 46.351788)"><g><path d="M 9.171875 -24.59375 L 9.171875 -19.0625 L 14.421875 -19.0625 L 14.421875 -15.015625 L 9.171875 -15.015625 L 9.171875 -6.546875 C 9.171875 -4.566406 10.0625 -3.578125 11.84375 -3.578125 C 13.03125 -3.578125 13.890625 -3.773438 14.421875 -4.171875 L 14.421875 -0.15625 C 13.515625 0.269531 12.253906 0.484375 10.640625 0.484375 C 8.441406 0.484375 6.851562 0 5.875 -0.96875 C 4.894531 -1.9375 4.40625 -3.640625 4.40625 -6.078125 L 4.40625 -15.015625 L 0.484375 -15.015625 L 0.484375 -19.0625 L 4.40625 -19.0625 L 4.40625 -24.59375 Z M 9.171875 -24.59375 "/></g></g></g><g fill="#377dff" fill-opacity="1"><g transform="translate(297.592082, 46.351788)"><g><path d="M 12.109375 -19.546875 C 14.972656 -19.546875 17.175781 -18.59375 18.71875 -16.6875 C 20.269531 -14.78125 21.046875 -12.289062 21.046875 -9.21875 L 21.046875 -7.859375 L 6.515625 -7.859375 C 6.671875 -6.484375 7.21875 -5.382812 8.15625 -4.5625 C 9.101562 -3.75 10.265625 -3.34375 11.640625 -3.34375 C 13.648438 -3.34375 15.359375 -4.203125 16.765625 -5.921875 L 20.171875 -3.34375 C 18.109375 -0.789062 15.421875 0.484375 12.109375 0.484375 C 9.203125 0.484375 6.75 -0.441406 4.75 -2.296875 C 2.75 -4.148438 1.75 -6.5625 1.75 -9.53125 C 1.75 -12.5 2.75 -14.910156 4.75 -16.765625 C 6.75 -18.617188 9.203125 -19.546875 12.109375 -19.546875 Z M 16.28125 -11.4375 C 16.257812 -12.945312 15.796875 -14.078125 14.890625 -14.828125 C 13.992188 -15.585938 12.832031 -15.96875 11.40625 -15.96875 C 9.96875 -15.96875 8.835938 -15.550781 8.015625 -14.71875 C 7.203125 -13.882812 6.703125 -12.789062 6.515625 -11.4375 Z M 16.28125 -11.4375 "/></g></g></g><g fill="#377dff" fill-opacity="1"><g transform="translate(320.382896, 46.351788)"><g><path d="M 12.109375 -19.546875 C 14.992188 -19.546875 17.300781 -18.578125 19.03125 -16.640625 L 15.734375 -13.34375 C 14.535156 -14.613281 13.328125 -15.25 12.109375 -15.25 C 10.421875 -15.25 9.066406 -14.6875 8.046875 -13.5625 C 7.023438 -12.4375 6.515625 -11.09375 6.515625 -9.53125 C 6.515625 -7.832031 7.050781 -6.453125 8.125 -5.390625 C 9.195312 -4.335938 10.523438 -3.8125 12.109375 -3.8125 C 13.648438 -3.8125 14.882812 -4.40625 15.8125 -5.59375 L 18.984375 -2.1875 C 18.242188 -1.445312 17.226562 -0.816406 15.9375 -0.296875 C 14.65625 0.222656 13.378906 0.484375 12.109375 0.484375 C 9.203125 0.484375 6.75 -0.441406 4.75 -2.296875 C 2.75 -4.148438 1.75 -6.5625 1.75 -9.53125 C 1.75 -12.414062 2.726562 -14.804688 4.6875 -16.703125 C 6.644531 -18.597656 9.117188 -19.546875 12.109375 -19.546875 Z M 12.109375 -19.546875 "/></g></g></g><g fill="#377dff" fill-opacity="1"><g transform="translate(339.520809, 46.351788)"><g><path d="M 7.46875 -30.03125 L 7.46875 -16.40625 L 7.546875 -16.40625 C 8.046875 -17.40625 8.789062 -18.175781 9.78125 -18.71875 C 10.78125 -19.269531 11.898438 -19.546875 13.140625 -19.546875 C 15.335938 -19.546875 17.046875 -18.890625 18.265625 -17.578125 C 19.484375 -16.265625 20.09375 -14.457031 20.09375 -12.15625 L 20.09375 0 L 15.328125 0 L 15.328125 -9.890625 C 15.328125 -13.460938 14.164062 -15.25 11.84375 -15.25 C 10.40625 -15.25 9.316406 -14.804688 8.578125 -13.921875 C 7.835938 -13.035156 7.46875 -11.878906 7.46875 -10.453125 L 7.46875 0 L 2.703125 0 L 2.703125 -30.03125 Z M 7.46875 -30.03125 "/></g></g></g></svg>