<svg xmlns="http://www.w3.org/2000/svg" xmlns:xlink="http://www.w3.org/1999/xlink" width="692" zoomAndPan="magnify" viewBox="0 0 519 116.999995" height="156" preserveAspectRatio="xMidYMid meet" version="1.0"><defs><g/><clipPath id="2bd5b95ef9"><path d="M 0 20.605469 L 76.5 20.605469 L 76.5 97.105469 L 0 97.105469 Z M 0 20.605469 " clip-rule="nonzero"/></clipPath></defs><rect x="-51.9" width="622.8" fill="#ffffff" y="-11.7" height="140.399994" fill-opacity="1"/><g clip-path="url(#2bd5b95ef9)"><path fill="#377dff" d="M 38.316406 20.605469 C 17.1875 20.605469 0 37.792969 0 58.921875 C 0 80.050781 17.1875 97.234375 38.316406 97.234375 C 59.441406 97.234375 76.628906 80.050781 76.628906 58.921875 C 76.628906 37.792969 59.441406 20.605469 38.316406 20.605469 Z M 57.972656 38.933594 L 58.417969 38.933594 C 58.738281 46.925781 55.089844 54.949219 47.796875 62.242188 L 47.761719 62.277344 L 47.730469 62.3125 C 46.308594 63.914062 45.246094 64.929688 43.953125 65.9375 L 43.3125 66.4375 L 43.3125 67.25 C 43.3125 73.859375 41.523438 78.34375 37.136719 82.730469 L 36.648438 83.21875 L 36.648438 69.9375 L 29.515625 73.46875 L 23.589844 67.765625 L 27.296875 60.585938 L 14.015625 60.585938 L 14.503906 60.097656 C 18.890625 55.714844 23.375 53.925781 29.984375 53.925781 L 30.734375 53.925781 L 31.226562 53.363281 C 32.527344 51.902344 33.671875 50.761719 34.996094 49.4375 C 42.066406 42.367188 49.582031 38.933594 57.972656 38.933594 Z M 44.976562 48.925781 C 44.535156 48.925781 44.109375 49.011719 43.703125 49.179688 C 43.292969 49.347656 42.933594 49.589844 42.621094 49.902344 C 42.308594 50.214844 42.070312 50.574219 41.898438 50.984375 C 41.730469 51.390625 41.644531 51.816406 41.644531 52.257812 C 41.644531 52.699219 41.730469 53.125 41.898438 53.535156 C 42.070312 53.941406 42.308594 54.300781 42.621094 54.613281 C 42.933594 54.925781 43.292969 55.167969 43.703125 55.335938 C 44.109375 55.503906 44.535156 55.589844 44.976562 55.589844 C 45.417969 55.589844 45.84375 55.503906 46.253906 55.335938 C 46.660156 55.167969 47.019531 54.925781 47.332031 54.613281 C 47.644531 54.300781 47.886719 53.941406 48.054688 53.535156 C 48.226562 53.125 48.308594 52.699219 48.308594 52.257812 C 48.308594 51.816406 48.226562 51.390625 48.054688 50.984375 C 47.886719 50.574219 47.644531 50.214844 47.332031 49.902344 C 47.019531 49.589844 46.660156 49.347656 46.253906 49.179688 C 45.84375 49.011719 45.417969 48.925781 44.976562 48.925781 Z M 21.277344 70.207031 L 22.65625 71.582031 C 21.703125 73.109375 21.550781 74.449219 21.671875 75.523438 C 22.769531 75.648438 24.132812 75.582031 25.699219 74.628906 L 27.0625 75.988281 C 26.773438 76.359375 26.476562 76.71875 26.167969 77.023438 C 23.503906 79.691406 20.007812 80.855469 16.675781 80.523438 C 16.507812 77.191406 17.671875 73.695312 20.339844 71.027344 C 20.617188 70.75 20.941406 70.472656 21.277344 70.207031 Z M 21.277344 70.207031 " fill-opacity="1" fill-rule="nonzero"/></g><g fill="#377dff" fill-opacity="1"><g transform="translate(79.788007, 79.915592)"><g><path d="M 13.328125 -44.6875 L 13.328125 0 L 3.890625 0 L 3.890625 -44.6875 Z M 13.328125 -44.6875 "/></g></g></g><g fill="#377dff" fill-opacity="1"><g transform="translate(97.021526, 79.915592)"><g><path d="M 3.703125 0 L 3.703125 -33.515625 L 12.5625 -33.515625 L 12.5625 -27.59375 L 12.953125 -27.59375 C 13.648438 -29.570312 14.816406 -31.125 16.453125 -32.25 C 18.097656 -33.382812 20.046875 -33.953125 22.296875 -33.953125 C 24.597656 -33.953125 26.554688 -33.378906 28.171875 -32.234375 C 29.785156 -31.085938 30.859375 -29.539062 31.390625 -27.59375 L 31.75 -27.59375 C 32.425781 -29.519531 33.660156 -31.0625 35.453125 -32.21875 C 37.253906 -33.375 39.382812 -33.953125 41.84375 -33.953125 C 44.96875 -33.953125 47.507812 -32.957031 49.46875 -30.96875 C 51.425781 -28.976562 52.40625 -26.164062 52.40625 -22.53125 L 52.40625 0 L 43.125 0 L 43.125 -20.703125 C 43.125 -22.566406 42.628906 -23.960938 41.640625 -24.890625 C 40.660156 -25.828125 39.425781 -26.296875 37.9375 -26.296875 C 36.25 -26.296875 34.929688 -25.753906 33.984375 -24.671875 C 33.046875 -23.597656 32.578125 -22.195312 32.578125 -20.46875 L 32.578125 0 L 23.5625 0 L 23.5625 -20.90625 C 23.5625 -22.539062 23.09375 -23.847656 22.15625 -24.828125 C 21.21875 -25.804688 19.984375 -26.296875 18.453125 -26.296875 C 16.910156 -26.296875 15.613281 -25.726562 14.5625 -24.59375 C 13.519531 -23.46875 13 -21.972656 13 -20.109375 L 13 0 Z M 3.703125 0 "/></g></g></g><g fill="#377dff" fill-opacity="1"><g transform="translate(153.04138, 79.915592)"><g><path d="M 3.703125 12.5625 L 3.703125 -33.515625 L 12.875 -33.515625 L 12.875 -27.875 L 13.28125 -27.875 C 13.707031 -28.789062 14.304688 -29.710938 15.078125 -30.640625 C 15.847656 -31.578125 16.863281 -32.363281 18.125 -33 C 19.394531 -33.632812 20.960938 -33.953125 22.828125 -33.953125 C 25.285156 -33.953125 27.535156 -33.3125 29.578125 -32.03125 C 31.628906 -30.757812 33.273438 -28.847656 34.515625 -26.296875 C 35.765625 -23.742188 36.390625 -20.550781 36.390625 -16.71875 C 36.390625 -12.976562 35.785156 -9.820312 34.578125 -7.25 C 33.367188 -4.6875 31.738281 -2.742188 29.6875 -1.421875 C 27.632812 -0.109375 25.335938 0.546875 22.796875 0.546875 C 20.992188 0.546875 19.460938 0.25 18.203125 -0.34375 C 16.941406 -0.945312 15.914062 -1.703125 15.125 -2.609375 C 14.332031 -3.515625 13.71875 -4.429688 13.28125 -5.359375 L 13 -5.359375 L 13 12.5625 Z M 12.8125 -16.75 C 12.8125 -13.769531 13.425781 -11.375 14.65625 -9.5625 C 15.882812 -7.75 17.617188 -6.84375 19.859375 -6.84375 C 22.140625 -6.84375 23.882812 -7.765625 25.09375 -9.609375 C 26.300781 -11.453125 26.90625 -13.832031 26.90625 -16.75 C 26.90625 -19.664062 26.300781 -22.023438 25.09375 -23.828125 C 23.894531 -25.640625 22.148438 -26.546875 19.859375 -26.546875 C 17.597656 -26.546875 15.859375 -25.660156 14.640625 -23.890625 C 13.421875 -22.128906 12.8125 -19.75 12.8125 -16.75 Z M 12.8125 -16.75 "/></g></g></g><g fill="#377dff" fill-opacity="1"><g transform="translate(191.893153, 79.915592)"><g><path d="M 13.265625 0.625 C 10.066406 0.625 7.410156 -0.207031 5.296875 -1.875 C 3.191406 -3.550781 2.140625 -6.046875 2.140625 -9.359375 C 2.140625 -11.859375 2.726562 -13.820312 3.90625 -15.25 C 5.082031 -16.675781 6.625 -17.71875 8.53125 -18.375 C 10.445312 -19.039062 12.515625 -19.472656 14.734375 -19.671875 C 17.640625 -19.960938 19.71875 -20.269531 20.96875 -20.59375 C 22.21875 -20.914062 22.84375 -21.613281 22.84375 -22.6875 L 22.84375 -22.828125 C 22.84375 -24.203125 22.410156 -25.265625 21.546875 -26.015625 C 20.679688 -26.773438 19.457031 -27.15625 17.875 -27.15625 C 16.195312 -27.15625 14.863281 -26.789062 13.875 -26.0625 C 12.882812 -25.34375 12.226562 -24.421875 11.90625 -23.296875 L 3.3125 -24 C 3.957031 -27.050781 5.546875 -29.472656 8.078125 -31.265625 C 10.617188 -33.054688 13.894531 -33.953125 17.90625 -33.953125 C 20.394531 -33.953125 22.722656 -33.554688 24.890625 -32.765625 C 27.054688 -31.984375 28.804688 -30.757812 30.140625 -29.09375 C 31.472656 -27.425781 32.140625 -25.265625 32.140625 -22.609375 L 32.140625 0 L 23.328125 0 L 23.328125 -4.640625 L 23.0625 -4.640625 C 22.25 -3.085938 21.03125 -1.820312 19.40625 -0.84375 C 17.78125 0.132812 15.734375 0.625 13.265625 0.625 Z M 15.921875 -5.78125 C 17.960938 -5.78125 19.632812 -6.375 20.9375 -7.5625 C 22.25 -8.75 22.90625 -10.222656 22.90625 -11.984375 L 22.90625 -15.53125 C 22.539062 -15.28125 21.976562 -15.0625 21.21875 -14.875 C 20.457031 -14.6875 19.640625 -14.523438 18.765625 -14.390625 C 17.898438 -14.253906 17.128906 -14.132812 16.453125 -14.03125 C 14.816406 -13.789062 13.5 -13.328125 12.5 -12.640625 C 11.507812 -11.960938 11.015625 -10.972656 11.015625 -9.671875 C 11.015625 -8.390625 11.472656 -7.421875 12.390625 -6.765625 C 13.316406 -6.109375 14.492188 -5.78125 15.921875 -5.78125 Z M 15.921875 -5.78125 "/></g></g></g><g fill="#377dff" fill-opacity="1"><g transform="translate(227.538177, 79.915592)"><g><path d="M 3.703125 0 L 3.703125 -33.515625 L 12.71875 -33.515625 L 12.71875 -27.671875 L 13.0625 -27.671875 C 13.675781 -29.742188 14.695312 -31.3125 16.125 -32.375 C 17.5625 -33.445312 19.226562 -33.984375 21.125 -33.984375 C 22.019531 -33.984375 22.851562 -33.875 23.625 -33.65625 C 24.394531 -33.445312 25.085938 -33.148438 25.703125 -32.765625 L 22.90625 -25.09375 C 22.46875 -25.3125 21.988281 -25.492188 21.46875 -25.640625 C 20.957031 -25.796875 20.382812 -25.875 19.75 -25.875 C 17.875 -25.875 16.285156 -25.234375 14.984375 -23.953125 C 13.679688 -22.671875 13.019531 -21.003906 13 -18.953125 L 13 0 Z M 3.703125 0 "/></g></g></g><g fill="#377dff" fill-opacity="1"><g transform="translate(253.868376, 79.915592)"><g><path d="M 13.265625 0.625 C 10.066406 0.625 7.410156 -0.207031 5.296875 -1.875 C 3.191406 -3.550781 2.140625 -6.046875 2.140625 -9.359375 C 2.140625 -11.859375 2.726562 -13.820312 3.90625 -15.25 C 5.082031 -16.675781 6.625 -17.71875 8.53125 -18.375 C 10.445312 -19.039062 12.515625 -19.472656 14.734375 -19.671875 C 17.640625 -19.960938 19.71875 -20.269531 20.96875 -20.59375 C 22.21875 -20.914062 22.84375 -21.613281 22.84375 -22.6875 L 22.84375 -22.828125 C 22.84375 -24.203125 22.410156 -25.265625 21.546875 -26.015625 C 20.679688 -26.773438 19.457031 -27.15625 17.875 -27.15625 C 16.195312 -27.15625 14.863281 -26.789062 13.875 -26.0625 C 12.882812 -25.34375 12.226562 -24.421875 11.90625 -23.296875 L 3.3125 -24 C 3.957031 -27.050781 5.546875 -29.472656 8.078125 -31.265625 C 10.617188 -33.054688 13.894531 -33.953125 17.90625 -33.953125 C 20.394531 -33.953125 22.722656 -33.554688 24.890625 -32.765625 C 27.054688 -31.984375 28.804688 -30.757812 30.140625 -29.09375 C 31.472656 -27.425781 32.140625 -25.265625 32.140625 -22.609375 L 32.140625 0 L 23.328125 0 L 23.328125 -4.640625 L 23.0625 -4.640625 C 22.25 -3.085938 21.03125 -1.820312 19.40625 -0.84375 C 17.78125 0.132812 15.734375 0.625 13.265625 0.625 Z M 15.921875 -5.78125 C 17.960938 -5.78125 19.632812 -6.375 20.9375 -7.5625 C 22.25 -8.75 22.90625 -10.222656 22.90625 -11.984375 L 22.90625 -15.53125 C 22.539062 -15.28125 21.976562 -15.0625 21.21875 -14.875 C 20.457031 -14.6875 19.640625 -14.523438 18.765625 -14.390625 C 17.898438 -14.253906 17.128906 -14.132812 16.453125 -14.03125 C 14.816406 -13.789062 13.5 -13.328125 12.5 -12.640625 C 11.507812 -11.960938 11.015625 -10.972656 11.015625 -9.671875 C 11.015625 -8.390625 11.472656 -7.421875 12.390625 -6.765625 C 13.316406 -6.109375 14.492188 -5.78125 15.921875 -5.78125 Z M 15.921875 -5.78125 "/></g></g></g><g fill="#377dff" fill-opacity="1"><g transform="translate(289.5134, 79.915592)"><g><path d="M 3.890625 0 L 3.890625 -44.6875 L 13.171875 -44.6875 L 13.171875 -27.875 L 13.46875 -27.875 C 13.882812 -28.789062 14.476562 -29.710938 15.25 -30.640625 C 16.019531 -31.578125 17.035156 -32.363281 18.296875 -33 C 19.566406 -33.632812 21.132812 -33.953125 23 -33.953125 C 25.457031 -33.953125 27.707031 -33.3125 29.75 -32.03125 C 31.800781 -30.757812 33.445312 -28.847656 34.6875 -26.296875 C 35.9375 -23.742188 36.5625 -20.550781 36.5625 -16.71875 C 36.5625 -12.976562 35.957031 -9.820312 34.75 -7.25 C 33.539062 -4.6875 31.910156 -2.742188 29.859375 -1.421875 C 27.816406 -0.109375 25.519531 0.546875 22.96875 0.546875 C 21.164062 0.546875 19.632812 0.25 18.375 -0.34375 C 17.125 -0.945312 16.097656 -1.703125 15.296875 -2.609375 C 14.503906 -3.515625 13.894531 -4.429688 13.46875 -5.359375 L 13.046875 -5.359375 L 13.046875 0 Z M 12.984375 -16.75 C 12.984375 -13.769531 13.597656 -11.375 14.828125 -9.5625 C 16.054688 -7.75 17.789062 -6.84375 20.03125 -6.84375 C 22.3125 -6.84375 24.054688 -7.765625 25.265625 -9.609375 C 26.472656 -11.453125 27.078125 -13.832031 27.078125 -16.75 C 27.078125 -19.664062 26.472656 -22.023438 25.265625 -23.828125 C 24.066406 -25.640625 22.320312 -26.546875 20.03125 -26.546875 C 17.769531 -26.546875 16.03125 -25.660156 14.8125 -23.890625 C 13.59375 -22.128906 12.984375 -19.75 12.984375 -16.75 Z M 12.984375 -16.75 "/></g></g></g><g fill="#377dff" fill-opacity="1"><g transform="translate(328.539695, 79.915592)"><g><path d="M 13 -44.6875 L 13 0 L 3.703125 0 L 3.703125 -44.6875 Z M 13 -44.6875 "/></g></g></g><g fill="#377dff" fill-opacity="1"><g transform="translate(345.24967, 79.915592)"><g><path d="M 18.984375 0.65625 C 15.546875 0.65625 12.582031 -0.046875 10.09375 -1.453125 C 7.613281 -2.859375 5.703125 -4.847656 4.359375 -7.421875 C 3.023438 -10.003906 2.359375 -13.066406 2.359375 -16.609375 C 2.359375 -20.054688 3.023438 -23.078125 4.359375 -25.671875 C 5.703125 -28.273438 7.585938 -30.304688 10.015625 -31.765625 C 12.453125 -33.222656 15.316406 -33.953125 18.609375 -33.953125 C 21.554688 -33.953125 24.21875 -33.320312 26.59375 -32.0625 C 28.976562 -30.8125 30.867188 -28.925781 32.265625 -26.40625 C 33.660156 -23.882812 34.359375 -20.726562 34.359375 -16.9375 L 34.359375 -14.375 L 11.546875 -14.375 L 11.546875 -14.359375 C 11.546875 -11.859375 12.226562 -9.882812 13.59375 -8.4375 C 14.957031 -7 16.804688 -6.28125 19.140625 -6.28125 C 20.691406 -6.28125 22.035156 -6.609375 23.171875 -7.265625 C 24.304688 -7.921875 25.101562 -8.890625 25.5625 -10.171875 L 34.171875 -9.59375 C 33.515625 -6.488281 31.851562 -4.003906 29.1875 -2.140625 C 26.53125 -0.273438 23.128906 0.65625 18.984375 0.65625 Z M 11.546875 -20.140625 L 25.609375 -20.140625 C 25.597656 -22.128906 24.957031 -23.769531 23.6875 -25.0625 C 22.425781 -26.363281 20.785156 -27.015625 18.765625 -27.015625 C 16.703125 -27.015625 15.003906 -26.34375 13.671875 -25 C 12.347656 -23.664062 11.640625 -22.046875 11.546875 -20.140625 Z M 11.546875 -20.140625 "/></g></g></g><g fill="#377dff" fill-opacity="1"><g transform="translate(381.963618, 79.915592)"><g><path d="M 31.59375 -23.953125 L 23.078125 -23.4375 C 22.847656 -24.507812 22.257812 -25.429688 21.3125 -26.203125 C 20.363281 -26.972656 19.082031 -27.359375 17.46875 -27.359375 C 16.03125 -27.359375 14.8125 -27.054688 13.8125 -26.453125 C 12.820312 -25.847656 12.332031 -25.046875 12.34375 -24.046875 C 12.332031 -23.242188 12.648438 -22.566406 13.296875 -22.015625 C 13.941406 -21.460938 15.046875 -21.019531 16.609375 -20.6875 L 22.671875 -19.46875 C 29.109375 -18.132812 32.335938 -15.109375 32.359375 -10.390625 C 32.359375 -8.191406 31.710938 -6.257812 30.421875 -4.59375 C 29.140625 -2.9375 27.378906 -1.644531 25.140625 -0.71875 C 22.898438 0.195312 20.332031 0.65625 17.4375 0.65625 C 13 0.65625 9.460938 -0.269531 6.828125 -2.125 C 4.191406 -3.976562 2.65625 -6.503906 2.21875 -9.703125 L 11.359375 -10.1875 C 11.648438 -8.820312 12.320312 -7.789062 13.375 -7.09375 C 14.4375 -6.394531 15.796875 -6.046875 17.453125 -6.046875 C 19.078125 -6.046875 20.390625 -6.363281 21.390625 -7 C 22.390625 -7.644531 22.894531 -8.460938 22.90625 -9.453125 C 22.863281 -11.109375 21.429688 -12.21875 18.609375 -12.78125 L 12.8125 -13.9375 C 6.320312 -15.238281 3.09375 -18.429688 3.125 -23.515625 C 3.101562 -26.742188 4.390625 -29.289062 6.984375 -31.15625 C 9.585938 -33.019531 13.035156 -33.953125 17.328125 -33.953125 C 21.554688 -33.953125 24.890625 -33.054688 27.328125 -31.265625 C 29.765625 -29.472656 31.1875 -27.035156 31.59375 -23.953125 Z M 31.59375 -23.953125 "/></g></g></g><g fill="#377dff" fill-opacity="1"><g transform="translate(416.474304, 79.915592)"><g><path d="M 9.140625 0.5625 C 7.703125 0.5625 6.46875 0.0546875 5.4375 -0.953125 C 4.40625 -1.972656 3.894531 -3.210938 3.90625 -4.671875 C 3.894531 -6.097656 4.40625 -7.316406 5.4375 -8.328125 C 6.46875 -9.347656 7.703125 -9.859375 9.140625 -9.859375 C 10.535156 -9.859375 11.753906 -9.347656 12.796875 -8.328125 C 13.835938 -7.316406 14.363281 -6.097656 14.375 -4.671875 C 14.363281 -3.210938 13.835938 -1.972656 12.796875 -0.953125 C 11.753906 0.0546875 10.535156 0.5625 9.140625 0.5625 Z M 9.140625 0.5625 "/></g></g></g><g fill="#377dff" fill-opacity="1"><g transform="translate(434.754912, 79.915592)"><g><path d="M 13 -44.6875 L 13 0 L 3.703125 0 L 3.703125 -44.6875 Z M 13 -44.6875 "/></g></g></g><g fill="#377dff" fill-opacity="1"><g transform="translate(451.464887, 79.915592)"><g><path d="M 13.265625 0.625 C 10.066406 0.625 7.410156 -0.207031 5.296875 -1.875 C 3.191406 -3.550781 2.140625 -6.046875 2.140625 -9.359375 C 2.140625 -11.859375 2.726562 -13.820312 3.90625 -15.25 C 5.082031 -16.675781 6.625 -17.71875 8.53125 -18.375 C 10.445312 -19.039062 12.515625 -19.472656 14.734375 -19.671875 C 17.640625 -19.960938 19.71875 -20.269531 20.96875 -20.59375 C 22.21875 -20.914062 22.84375 -21.613281 22.84375 -22.6875 L 22.84375 -22.828125 C 22.84375 -24.203125 22.410156 -25.265625 21.546875 -26.015625 C 20.679688 -26.773438 19.457031 -27.15625 17.875 -27.15625 C 16.195312 -27.15625 14.863281 -26.789062 13.875 -26.0625 C 12.882812 -25.34375 12.226562 -24.421875 11.90625 -23.296875 L 3.3125 -24 C 3.957031 -27.050781 5.546875 -29.472656 8.078125 -31.265625 C 10.617188 -33.054688 13.894531 -33.953125 17.90625 -33.953125 C 20.394531 -33.953125 22.722656 -33.554688 24.890625 -32.765625 C 27.054688 -31.984375 28.804688 -30.757812 30.140625 -29.09375 C 31.472656 -27.425781 32.140625 -25.265625 32.140625 -22.609375 L 32.140625 0 L 23.328125 0 L 23.328125 -4.640625 L 23.0625 -4.640625 C 22.25 -3.085938 21.03125 -1.820312 19.40625 -0.84375 C 17.78125 0.132812 15.734375 0.625 13.265625 0.625 Z M 15.921875 -5.78125 C 17.960938 -5.78125 19.632812 -6.375 20.9375 -7.5625 C 22.25 -8.75 22.90625 -10.222656 22.90625 -11.984375 L 22.90625 -15.53125 C 22.539062 -15.28125 21.976562 -15.0625 21.21875 -14.875 C 20.457031 -14.6875 19.640625 -14.523438 18.765625 -14.390625 C 17.898438 -14.253906 17.128906 -14.132812 16.453125 -14.03125 C 14.816406 -13.789062 13.5 -13.328125 12.5 -12.640625 C 11.507812 -11.960938 11.015625 -10.972656 11.015625 -9.671875 C 11.015625 -8.390625 11.472656 -7.421875 12.390625 -6.765625 C 13.316406 -6.109375 14.492188 -5.78125 15.921875 -5.78125 Z M 15.921875 -5.78125 "/></g></g></g></svg>