<svg xmlns="http://www.w3.org/2000/svg" xmlns:xlink="http://www.w3.org/1999/xlink" width="927" zoomAndPan="magnify" viewBox="0 0 695.25 161.249994" height="215" preserveAspectRatio="xMidYMid meet" version="1.0"><defs><g/><clipPath id="871afda989"><path d="M 1.234375 0 L 693.265625 0 L 693.265625 160.503906 L 1.234375 160.503906 Z M 1.234375 0 " clip-rule="nonzero"/></clipPath><clipPath id="45c2d3ec42"><path d="M 1.234375 41.804688 L 77.382812 41.804688 L 77.382812 117.949219 L 1.234375 117.949219 Z M 1.234375 41.804688 " clip-rule="nonzero"/></clipPath></defs><g clip-path="url(#871afda989)"><path fill="#ffffff" d="M 1.234375 0 L 693.265625 0 L 693.265625 160.503906 L 1.234375 160.503906 Z M 1.234375 0 " fill-opacity="1" fill-rule="nonzero"/></g><g clip-path="url(#45c2d3ec42)"><path fill="#377dff" d="M 39.375 41.804688 C 18.34375 41.804688 1.234375 58.910156 1.234375 79.941406 C 1.234375 100.96875 18.34375 118.078125 39.375 118.078125 C 60.402344 118.078125 77.511719 100.96875 77.511719 79.941406 C 77.511719 58.910156 60.402344 41.804688 39.375 41.804688 Z M 58.941406 60.042969 L 59.382812 60.042969 C 59.699219 68 56.070312 75.988281 48.8125 83.242188 L 48.777344 83.28125 L 48.746094 83.316406 C 47.328125 84.910156 46.273438 85.921875 44.984375 86.921875 L 44.347656 87.421875 L 44.347656 88.230469 C 44.347656 94.808594 42.566406 99.273438 38.199219 103.640625 L 37.714844 104.125 L 37.714844 90.90625 L 30.617188 94.421875 L 24.714844 88.742188 L 28.40625 81.597656 L 15.1875 81.597656 L 15.671875 81.113281 C 20.039062 76.746094 24.503906 74.964844 31.082031 74.964844 L 31.828125 74.964844 L 32.320312 74.410156 C 33.613281 72.953125 34.75 71.820312 36.070312 70.5 C 43.105469 63.464844 50.589844 60.042969 58.941406 60.042969 Z M 46.003906 69.992188 C 45.566406 69.992188 45.144531 70.074219 44.738281 70.242188 C 44.332031 70.414062 43.972656 70.652344 43.660156 70.964844 C 43.351562 71.273438 43.109375 71.632812 42.941406 72.039062 C 42.773438 72.445312 42.691406 72.867188 42.691406 73.308594 C 42.691406 73.746094 42.773438 74.171875 42.941406 74.578125 C 43.109375 74.984375 43.351562 75.34375 43.660156 75.652344 C 43.972656 75.964844 44.332031 76.203125 44.738281 76.371094 C 45.144531 76.539062 45.566406 76.625 46.003906 76.625 C 46.445312 76.625 46.867188 76.539062 47.273438 76.371094 C 47.679688 76.203125 48.039062 75.964844 48.351562 75.652344 C 48.660156 75.34375 48.902344 74.984375 49.070312 74.578125 C 49.238281 74.171875 49.320312 73.746094 49.320312 73.308594 C 49.320312 72.867188 49.238281 72.445312 49.070312 72.039062 C 48.902344 71.632812 48.660156 71.273438 48.351562 70.964844 C 48.039062 70.652344 47.679688 70.414062 47.273438 70.242188 C 46.867188 70.074219 46.445312 69.992188 46.003906 69.992188 Z M 22.417969 91.171875 L 23.785156 92.542969 C 22.839844 94.0625 22.6875 95.394531 22.808594 96.464844 C 23.898438 96.585938 25.257812 96.523438 26.816406 95.578125 L 28.175781 96.929688 C 27.886719 97.296875 27.589844 97.65625 27.285156 97.960938 C 24.628906 100.613281 21.148438 101.773438 17.832031 101.441406 C 17.667969 98.125 18.828125 94.644531 21.480469 91.992188 C 21.757812 91.710938 22.082031 91.4375 22.417969 91.171875 Z M 22.417969 91.171875 " fill-opacity="1" fill-rule="nonzero"/></g><g fill="#377dff" fill-opacity="1"><g transform="translate(87.862047, 110.466014)"><g><path d="M 19.421875 -61.203125 L 19.421875 0 L 4.625 0 L 4.625 -61.203125 Z M 19.421875 -61.203125 "/></g></g></g><g fill="#377dff" fill-opacity="1"><g transform="translate(111.91863, 110.466014)"><g><path d="M 4.625 0 L 4.625 -45.90625 L 18.53125 -45.90625 L 18.53125 -37.46875 L 19.03125 -37.46875 C 19.988281 -40.257812 21.601562 -42.460938 23.875 -44.078125 C 26.144531 -45.691406 28.851562 -46.5 32 -46.5 C 35.1875 -46.5 37.914062 -45.679688 40.1875 -44.046875 C 42.46875 -42.410156 43.914062 -40.21875 44.53125 -37.46875 L 45 -37.46875 C 45.863281 -40.195312 47.539062 -42.382812 50.03125 -44.03125 C 52.519531 -45.675781 55.457031 -46.5 58.84375 -46.5 C 63.1875 -46.5 66.710938 -45.109375 69.421875 -42.328125 C 72.128906 -39.546875 73.484375 -35.738281 73.484375 -30.90625 L 73.484375 0 L 58.875 0 L 58.875 -27.546875 C 58.875 -29.835938 58.285156 -31.585938 57.109375 -32.796875 C 55.929688 -34.003906 54.40625 -34.609375 52.53125 -34.609375 C 50.519531 -34.609375 48.941406 -33.953125 47.796875 -32.640625 C 46.648438 -31.335938 46.078125 -29.59375 46.078125 -27.40625 L 46.078125 0 L 32.03125 0 L 32.03125 -27.703125 C 32.03125 -29.835938 31.453125 -31.519531 30.296875 -32.75 C 29.140625 -33.988281 27.617188 -34.609375 25.734375 -34.609375 C 24.453125 -34.609375 23.320312 -34.300781 22.34375 -33.6875 C 21.375 -33.082031 20.613281 -32.222656 20.0625 -31.109375 C 19.519531 -29.992188 19.25 -28.679688 19.25 -27.171875 L 19.25 0 Z M 4.625 0 "/></g></g></g><g fill="#377dff" fill-opacity="1"><g transform="translate(189.855981, 110.466014)"><g><path d="M 4.625 17.21875 L 4.625 -45.90625 L 19.09375 -45.90625 L 19.09375 -38.046875 L 19.546875 -38.046875 C 20.140625 -39.441406 20.988281 -40.785156 22.09375 -42.078125 C 23.207031 -43.367188 24.625 -44.425781 26.34375 -45.25 C 28.0625 -46.082031 30.128906 -46.5 32.546875 -46.5 C 35.734375 -46.5 38.71875 -45.660156 41.5 -43.984375 C 44.28125 -42.316406 46.523438 -39.738281 48.234375 -36.25 C 49.941406 -32.757812 50.796875 -28.316406 50.796875 -22.921875 C 50.796875 -17.722656 49.972656 -13.367188 48.328125 -9.859375 C 46.691406 -6.359375 44.484375 -3.726562 41.703125 -1.96875 C 38.921875 -0.21875 35.835938 0.65625 32.453125 0.65625 C 30.140625 0.65625 28.132812 0.28125 26.4375 -0.46875 C 24.75 -1.226562 23.332031 -2.222656 22.1875 -3.453125 C 21.039062 -4.691406 20.160156 -6.019531 19.546875 -7.4375 L 19.25 -7.4375 L 19.25 17.21875 Z M 18.953125 -22.953125 C 18.953125 -20.484375 19.285156 -18.332031 19.953125 -16.5 C 20.617188 -14.664062 21.582031 -13.242188 22.84375 -12.234375 C 24.113281 -11.234375 25.632812 -10.734375 27.40625 -10.734375 C 29.195312 -10.734375 30.71875 -11.234375 31.96875 -12.234375 C 33.226562 -13.242188 34.179688 -14.664062 34.828125 -16.5 C 35.472656 -18.332031 35.796875 -20.484375 35.796875 -22.953125 C 35.796875 -25.421875 35.472656 -27.5625 34.828125 -29.375 C 34.179688 -31.1875 33.234375 -32.585938 31.984375 -33.578125 C 30.742188 -34.578125 29.21875 -35.078125 27.40625 -35.078125 C 25.613281 -35.078125 24.085938 -34.585938 22.828125 -33.609375 C 21.578125 -32.640625 20.617188 -31.25 19.953125 -29.4375 C 19.285156 -27.625 18.953125 -25.460938 18.953125 -22.953125 Z M 18.953125 -22.953125 "/></g></g></g><g fill="#377dff" fill-opacity="1"><g transform="translate(243.706865, 110.466014)"><g><path d="M 17.578125 0.78125 C 14.640625 0.78125 12.039062 0.285156 9.78125 -0.703125 C 7.519531 -1.691406 5.738281 -3.1875 4.4375 -5.1875 C 3.132812 -7.1875 2.484375 -9.703125 2.484375 -12.734375 C 2.484375 -15.285156 2.929688 -17.4375 3.828125 -19.1875 C 4.722656 -20.9375 5.957031 -22.359375 7.53125 -23.453125 C 9.101562 -24.554688 10.914062 -25.390625 12.96875 -25.953125 C 15.019531 -26.523438 17.210938 -26.910156 19.546875 -27.109375 C 22.148438 -27.347656 24.25 -27.597656 25.84375 -27.859375 C 27.4375 -28.128906 28.597656 -28.519531 29.328125 -29.03125 C 30.054688 -29.539062 30.421875 -30.265625 30.421875 -31.203125 L 30.421875 -31.34375 C 30.421875 -32.882812 29.890625 -34.070312 28.828125 -34.90625 C 27.773438 -35.738281 26.351562 -36.15625 24.5625 -36.15625 C 22.632812 -36.15625 21.082031 -35.738281 19.90625 -34.90625 C 18.726562 -34.070312 17.976562 -32.914062 17.65625 -31.4375 L 4.1875 -31.921875 C 4.582031 -34.703125 5.609375 -37.191406 7.265625 -39.390625 C 8.929688 -41.597656 11.222656 -43.332031 14.140625 -44.59375 C 17.066406 -45.863281 20.582031 -46.5 24.6875 -46.5 C 27.613281 -46.5 30.3125 -46.15625 32.78125 -45.46875 C 35.25 -44.78125 37.398438 -43.785156 39.234375 -42.484375 C 41.066406 -41.179688 42.484375 -39.582031 43.484375 -37.6875 C 44.492188 -35.789062 45 -33.628906 45 -31.203125 L 45 0 L 31.265625 0 L 31.265625 -6.390625 L 30.90625 -6.390625 C 30.082031 -4.835938 29.035156 -3.523438 27.765625 -2.453125 C 26.503906 -1.378906 25.019531 -0.570312 23.3125 -0.03125 C 21.613281 0.507812 19.703125 0.78125 17.578125 0.78125 Z M 22.078125 -8.78125 C 23.660156 -8.78125 25.082031 -9.097656 26.34375 -9.734375 C 27.601562 -10.378906 28.613281 -11.265625 29.375 -12.390625 C 30.132812 -13.515625 30.515625 -14.820312 30.515625 -16.3125 L 30.515625 -20.6875 C 30.097656 -20.46875 29.59375 -20.265625 29 -20.078125 C 28.414062 -19.898438 27.773438 -19.726562 27.078125 -19.5625 C 26.378906 -19.40625 25.660156 -19.269531 24.921875 -19.15625 C 24.179688 -19.039062 23.472656 -18.929688 22.796875 -18.828125 C 21.421875 -18.609375 20.25 -18.269531 19.28125 -17.8125 C 18.320312 -17.351562 17.585938 -16.757812 17.078125 -16.03125 C 16.566406 -15.300781 16.3125 -14.441406 16.3125 -13.453125 C 16.3125 -11.929688 16.851562 -10.769531 17.9375 -9.96875 C 19.03125 -9.175781 20.410156 -8.78125 22.078125 -8.78125 Z M 22.078125 -8.78125 "/></g></g></g><g fill="#377dff" fill-opacity="1"><g transform="translate(292.985507, 110.466014)"><g><path d="M 4.625 0 L 4.625 -45.90625 L 18.828125 -45.90625 L 18.828125 -37.53125 L 19.3125 -37.53125 C 20.144531 -40.5625 21.503906 -42.816406 23.390625 -44.296875 C 25.285156 -45.785156 27.488281 -46.53125 30 -46.53125 C 30.675781 -46.53125 31.375 -46.484375 32.09375 -46.390625 C 32.8125 -46.304688 33.476562 -46.175781 34.09375 -46 L 34.09375 -33.296875 C 33.394531 -33.535156 32.484375 -33.722656 31.359375 -33.859375 C 30.234375 -33.992188 29.234375 -34.0625 28.359375 -34.0625 C 26.628906 -34.0625 25.070312 -33.675781 23.6875 -32.90625 C 22.300781 -32.144531 21.210938 -31.082031 20.421875 -29.71875 C 19.640625 -28.351562 19.25 -26.753906 19.25 -24.921875 L 19.25 0 Z M 4.625 0 "/></g></g></g><g fill="#377dff" fill-opacity="1"><g transform="translate(328.427895, 110.466014)"><g><path d="M 17.578125 0.78125 C 14.640625 0.78125 12.039062 0.285156 9.78125 -0.703125 C 7.519531 -1.691406 5.738281 -3.1875 4.4375 -5.1875 C 3.132812 -7.1875 2.484375 -9.703125 2.484375 -12.734375 C 2.484375 -15.285156 2.929688 -17.4375 3.828125 -19.1875 C 4.722656 -20.9375 5.957031 -22.359375 7.53125 -23.453125 C 9.101562 -24.554688 10.914062 -25.390625 12.96875 -25.953125 C 15.019531 -26.523438 17.210938 -26.910156 19.546875 -27.109375 C 22.148438 -27.347656 24.25 -27.597656 25.84375 -27.859375 C 27.4375 -28.128906 28.597656 -28.519531 29.328125 -29.03125 C 30.054688 -29.539062 30.421875 -30.265625 30.421875 -31.203125 L 30.421875 -31.34375 C 30.421875 -32.882812 29.890625 -34.070312 28.828125 -34.90625 C 27.773438 -35.738281 26.351562 -36.15625 24.5625 -36.15625 C 22.632812 -36.15625 21.082031 -35.738281 19.90625 -34.90625 C 18.726562 -34.070312 17.976562 -32.914062 17.65625 -31.4375 L 4.1875 -31.921875 C 4.582031 -34.703125 5.609375 -37.191406 7.265625 -39.390625 C 8.929688 -41.597656 11.222656 -43.332031 14.140625 -44.59375 C 17.066406 -45.863281 20.582031 -46.5 24.6875 -46.5 C 27.613281 -46.5 30.3125 -46.15625 32.78125 -45.46875 C 35.25 -44.78125 37.398438 -43.785156 39.234375 -42.484375 C 41.066406 -41.179688 42.484375 -39.582031 43.484375 -37.6875 C 44.492188 -35.789062 45 -33.628906 45 -31.203125 L 45 0 L 31.265625 0 L 31.265625 -6.390625 L 30.90625 -6.390625 C 30.082031 -4.835938 29.035156 -3.523438 27.765625 -2.453125 C 26.503906 -1.378906 25.019531 -0.570312 23.3125 -0.03125 C 21.613281 0.507812 19.703125 0.78125 17.578125 0.78125 Z M 22.078125 -8.78125 C 23.660156 -8.78125 25.082031 -9.097656 26.34375 -9.734375 C 27.601562 -10.378906 28.613281 -11.265625 29.375 -12.390625 C 30.132812 -13.515625 30.515625 -14.820312 30.515625 -16.3125 L 30.515625 -20.6875 C 30.097656 -20.46875 29.59375 -20.265625 29 -20.078125 C 28.414062 -19.898438 27.773438 -19.726562 27.078125 -19.5625 C 26.378906 -19.40625 25.660156 -19.269531 24.921875 -19.15625 C 24.179688 -19.039062 23.472656 -18.929688 22.796875 -18.828125 C 21.421875 -18.609375 20.25 -18.269531 19.28125 -17.8125 C 18.320312 -17.351562 17.585938 -16.757812 17.078125 -16.03125 C 16.566406 -15.300781 16.3125 -14.441406 16.3125 -13.453125 C 16.3125 -11.929688 16.851562 -10.769531 17.9375 -9.96875 C 19.03125 -9.175781 20.410156 -8.78125 22.078125 -8.78125 Z M 22.078125 -8.78125 "/></g></g></g><g fill="#377dff" fill-opacity="1"><g transform="translate(377.706523, 110.466014)"><g><path d="M 4.625 0 L 4.625 -61.203125 L 19.25 -61.203125 L 19.25 -38.046875 L 19.546875 -38.046875 C 20.140625 -39.441406 20.988281 -40.785156 22.09375 -42.078125 C 23.207031 -43.367188 24.625 -44.425781 26.34375 -45.25 C 28.0625 -46.082031 30.128906 -46.5 32.546875 -46.5 C 35.734375 -46.5 38.71875 -45.660156 41.5 -43.984375 C 44.28125 -42.316406 46.523438 -39.738281 48.234375 -36.25 C 49.941406 -32.757812 50.796875 -28.316406 50.796875 -22.921875 C 50.796875 -17.722656 49.972656 -13.367188 48.328125 -9.859375 C 46.691406 -6.359375 44.484375 -3.726562 41.703125 -1.96875 C 38.921875 -0.21875 35.835938 0.65625 32.453125 0.65625 C 30.140625 0.65625 28.132812 0.28125 26.4375 -0.46875 C 24.75 -1.226562 23.332031 -2.222656 22.1875 -3.453125 C 21.039062 -4.691406 20.160156 -6.019531 19.546875 -7.4375 L 19.09375 -7.4375 L 19.09375 0 Z M 18.953125 -22.953125 C 18.953125 -20.484375 19.285156 -18.332031 19.953125 -16.5 C 20.617188 -14.664062 21.582031 -13.242188 22.84375 -12.234375 C 24.113281 -11.234375 25.632812 -10.734375 27.40625 -10.734375 C 29.195312 -10.734375 30.71875 -11.234375 31.96875 -12.234375 C 33.226562 -13.242188 34.179688 -14.664062 34.828125 -16.5 C 35.472656 -18.332031 35.796875 -20.484375 35.796875 -22.953125 C 35.796875 -25.421875 35.472656 -27.5625 34.828125 -29.375 C 34.179688 -31.1875 33.234375 -32.585938 31.984375 -33.578125 C 30.742188 -34.578125 29.21875 -35.078125 27.40625 -35.078125 C 25.613281 -35.078125 24.085938 -34.585938 22.828125 -33.609375 C 21.578125 -32.640625 20.617188 -31.25 19.953125 -29.4375 C 19.285156 -27.625 18.953125 -25.460938 18.953125 -22.953125 Z M 18.953125 -22.953125 "/></g></g></g><g fill="#377dff" fill-opacity="1"><g transform="translate(431.557407, 110.466014)"><g><path d="M 19.25 -61.203125 L 19.25 0 L 4.625 0 L 4.625 -61.203125 Z M 19.25 -61.203125 "/></g></g></g><g fill="#377dff" fill-opacity="1"><g transform="translate(455.434683, 110.466014)"><g><path d="M 26.09375 0.859375 C 21.289062 0.859375 17.148438 -0.0859375 13.671875 -1.984375 C 10.191406 -3.890625 7.519531 -6.609375 5.65625 -10.140625 C 3.800781 -13.679688 2.875 -17.890625 2.875 -22.765625 C 2.875 -27.515625 3.804688 -31.664062 5.671875 -35.21875 C 7.546875 -38.769531 10.1875 -41.535156 13.59375 -43.515625 C 17 -45.503906 21.015625 -46.5 25.640625 -46.5 C 28.910156 -46.5 31.898438 -45.988281 34.609375 -44.96875 C 37.316406 -43.957031 39.65625 -42.453125 41.625 -40.453125 C 43.601562 -38.460938 45.140625 -36.007812 46.234375 -33.09375 C 47.328125 -30.175781 47.875 -26.835938 47.875 -23.078125 L 47.875 -19.421875 L 7.984375 -19.421875 L 7.984375 -27.90625 L 34.28125 -27.90625 C 34.257812 -29.46875 33.890625 -30.851562 33.171875 -32.0625 C 32.453125 -33.28125 31.46875 -34.234375 30.21875 -34.921875 C 28.976562 -35.609375 27.550781 -35.953125 25.9375 -35.953125 C 24.300781 -35.953125 22.835938 -35.585938 21.546875 -34.859375 C 20.253906 -34.128906 19.226562 -33.140625 18.46875 -31.890625 C 17.707031 -30.648438 17.3125 -29.242188 17.28125 -27.671875 L 17.28125 -19.03125 C 17.28125 -17.164062 17.644531 -15.53125 18.375 -14.125 C 19.113281 -12.71875 20.160156 -11.625 21.515625 -10.84375 C 22.867188 -10.070312 24.484375 -9.6875 26.359375 -9.6875 C 27.648438 -9.6875 28.820312 -9.863281 29.875 -10.21875 C 30.9375 -10.582031 31.84375 -11.109375 32.59375 -11.796875 C 33.351562 -12.492188 33.925781 -13.351562 34.3125 -14.375 L 47.71875 -13.984375 C 47.164062 -10.972656 45.945312 -8.359375 44.0625 -6.140625 C 42.175781 -3.921875 39.707031 -2.195312 36.65625 -0.96875 C 33.613281 0.25 30.09375 0.859375 26.09375 0.859375 Z M 26.09375 0.859375 "/></g></g></g><g fill="#377dff" fill-opacity="1"><g transform="translate(506.177642, 110.466014)"><g><path d="M 44.703125 -31.890625 L 31.296875 -31.53125 C 31.148438 -32.488281 30.769531 -33.335938 30.15625 -34.078125 C 29.539062 -34.828125 28.738281 -35.414062 27.75 -35.84375 C 26.757812 -36.269531 25.617188 -36.484375 24.328125 -36.484375 C 22.628906 -36.484375 21.1875 -36.144531 20 -35.46875 C 18.820312 -34.789062 18.242188 -33.875 18.265625 -32.71875 C 18.242188 -31.820312 18.601562 -31.046875 19.34375 -30.390625 C 20.09375 -29.734375 21.4375 -29.207031 23.375 -28.8125 L 32.21875 -27.140625 C 36.800781 -26.265625 40.210938 -24.804688 42.453125 -22.765625 C 44.691406 -20.734375 45.820312 -18.046875 45.84375 -14.703125 C 45.820312 -11.554688 44.890625 -8.816406 43.046875 -6.484375 C 41.203125 -4.148438 38.6875 -2.34375 35.5 -1.0625 C 32.3125 0.21875 28.664062 0.859375 24.5625 0.859375 C 18.007812 0.859375 12.84375 -0.488281 9.0625 -3.1875 C 5.289062 -5.882812 3.132812 -9.503906 2.59375 -14.046875 L 17.03125 -14.40625 C 17.351562 -12.726562 18.179688 -11.453125 19.515625 -10.578125 C 20.847656 -9.703125 22.550781 -9.265625 24.625 -9.265625 C 26.5 -9.265625 28.019531 -9.613281 29.1875 -10.3125 C 30.363281 -11.007812 30.960938 -11.9375 30.984375 -13.09375 C 30.960938 -14.125 30.503906 -14.953125 29.609375 -15.578125 C 28.710938 -16.210938 27.3125 -16.707031 25.40625 -17.0625 L 17.390625 -18.59375 C 12.785156 -19.425781 9.359375 -20.972656 7.109375 -23.234375 C 4.859375 -25.492188 3.742188 -28.378906 3.765625 -31.890625 C 3.742188 -34.953125 4.5625 -37.570312 6.21875 -39.75 C 7.875 -41.9375 10.222656 -43.609375 13.265625 -44.765625 C 16.316406 -45.921875 19.914062 -46.5 24.0625 -46.5 C 30.269531 -46.5 35.164062 -45.195312 38.75 -42.59375 C 42.34375 -40 44.328125 -36.429688 44.703125 -31.890625 Z M 44.703125 -31.890625 "/></g></g></g><g fill="#377dff" fill-opacity="1"><g transform="translate(554.559784, 110.466014)"><g><path d="M 12.84375 0.859375 C 10.695312 0.859375 8.859375 0.101562 7.328125 -1.40625 C 5.804688 -2.914062 5.054688 -4.75 5.078125 -6.90625 C 5.054688 -9.019531 5.804688 -10.828125 7.328125 -12.328125 C 8.859375 -13.828125 10.695312 -14.578125 12.84375 -14.578125 C 14.882812 -14.578125 16.6875 -13.828125 18.25 -12.328125 C 19.8125 -10.828125 20.601562 -9.019531 20.625 -6.90625 C 20.601562 -5.46875 20.226562 -4.160156 19.5 -2.984375 C 18.769531 -1.804688 17.820312 -0.867188 16.65625 -0.171875 C 15.488281 0.515625 14.21875 0.859375 12.84375 0.859375 Z M 12.84375 0.859375 "/></g></g></g><g fill="#377dff" fill-opacity="1"><g transform="translate(580.230088, 110.466014)"><g><path d="M 19.25 -61.203125 L 19.25 0 L 4.625 0 L 4.625 -61.203125 Z M 19.25 -61.203125 "/></g></g></g><g fill="#377dff" fill-opacity="1"><g transform="translate(604.107364, 110.466014)"><g><path d="M 17.578125 0.78125 C 14.640625 0.78125 12.039062 0.285156 9.78125 -0.703125 C 7.519531 -1.691406 5.738281 -3.1875 4.4375 -5.1875 C 3.132812 -7.1875 2.484375 -9.703125 2.484375 -12.734375 C 2.484375 -15.285156 2.929688 -17.4375 3.828125 -19.1875 C 4.722656 -20.9375 5.957031 -22.359375 7.53125 -23.453125 C 9.101562 -24.554688 10.914062 -25.390625 12.96875 -25.953125 C 15.019531 -26.523438 17.210938 -26.910156 19.546875 -27.109375 C 22.148438 -27.347656 24.25 -27.597656 25.84375 -27.859375 C 27.4375 -28.128906 28.597656 -28.519531 29.328125 -29.03125 C 30.054688 -29.539062 30.421875 -30.265625 30.421875 -31.203125 L 30.421875 -31.34375 C 30.421875 -32.882812 29.890625 -34.070312 28.828125 -34.90625 C 27.773438 -35.738281 26.351562 -36.15625 24.5625 -36.15625 C 22.632812 -36.15625 21.082031 -35.738281 19.90625 -34.90625 C 18.726562 -34.070312 17.976562 -32.914062 17.65625 -31.4375 L 4.1875 -31.921875 C 4.582031 -34.703125 5.609375 -37.191406 7.265625 -39.390625 C 8.929688 -41.597656 11.222656 -43.332031 14.140625 -44.59375 C 17.066406 -45.863281 20.582031 -46.5 24.6875 -46.5 C 27.613281 -46.5 30.3125 -46.15625 32.78125 -45.46875 C 35.25 -44.78125 37.398438 -43.785156 39.234375 -42.484375 C 41.066406 -41.179688 42.484375 -39.582031 43.484375 -37.6875 C 44.492188 -35.789062 45 -33.628906 45 -31.203125 L 45 0 L 31.265625 0 L 31.265625 -6.390625 L 30.90625 -6.390625 C 30.082031 -4.835938 29.035156 -3.523438 27.765625 -2.453125 C 26.503906 -1.378906 25.019531 -0.570312 23.3125 -0.03125 C 21.613281 0.507812 19.703125 0.78125 17.578125 0.78125 Z M 22.078125 -8.78125 C 23.660156 -8.78125 25.082031 -9.097656 26.34375 -9.734375 C 27.601562 -10.378906 28.613281 -11.265625 29.375 -12.390625 C 30.132812 -13.515625 30.515625 -14.820312 30.515625 -16.3125 L 30.515625 -20.6875 C 30.097656 -20.46875 29.59375 -20.265625 29 -20.078125 C 28.414062 -19.898438 27.773438 -19.726562 27.078125 -19.5625 C 26.378906 -19.40625 25.660156 -19.269531 24.921875 -19.15625 C 24.179688 -19.039062 23.472656 -18.929688 22.796875 -18.828125 C 21.421875 -18.609375 20.25 -18.269531 19.28125 -17.8125 C 18.320312 -17.351562 17.585938 -16.757812 17.078125 -16.03125 C 16.566406 -15.300781 16.3125 -14.441406 16.3125 -13.453125 C 16.3125 -11.929688 16.851562 -10.769531 17.9375 -9.96875 C 19.03125 -9.175781 20.410156 -8.78125 22.078125 -8.78125 Z M 22.078125 -8.78125 "/></g></g></g></svg>