<svg xmlns="http://www.w3.org/2000/svg" xmlns:xlink="http://www.w3.org/1999/xlink" width="798" zoomAndPan="magnify" viewBox="0 0 598.5 135.750003" height="181" preserveAspectRatio="xMidYMid meet" version="1.0"><defs><g/><clipPath id="7164ef50e0"><path d="M 0.300781 0 L 597.699219 0 L 597.699219 135.5 L 0.300781 135.5 Z M 0.300781 0 " clip-rule="nonzero"/></clipPath><clipPath id="c5cc227c47"><path d="M 0.300781 29.171875 L 76.660156 29.171875 L 76.660156 105.53125 L 0.300781 105.53125 Z M 0.300781 29.171875 " clip-rule="nonzero"/></clipPath></defs><g clip-path="url(#7164ef50e0)"><path fill="#ffffff" d="M 0.300781 0 L 597.699219 0 L 597.699219 135.5 L 0.300781 135.5 Z M 0.300781 0 " fill-opacity="1" fill-rule="nonzero"/></g><g clip-path="url(#c5cc227c47)"><path fill="#377dff" d="M 38.542969 29.171875 C 17.457031 29.171875 0.300781 46.324219 0.300781 67.414062 C 0.300781 88.503906 17.457031 105.660156 38.542969 105.660156 C 59.632812 105.660156 76.789062 88.503906 76.789062 67.414062 C 76.789062 46.324219 59.632812 29.171875 38.542969 29.171875 Z M 58.167969 47.460938 L 58.613281 47.460938 C 58.929688 55.441406 55.289062 63.449219 48.011719 70.726562 L 47.976562 70.761719 L 47.941406 70.800781 C 46.523438 72.398438 45.464844 73.414062 44.171875 74.417969 L 43.53125 74.917969 L 43.53125 75.730469 C 43.53125 82.324219 41.746094 86.804688 37.367188 91.179688 L 36.882812 91.667969 L 36.882812 78.410156 L 29.761719 81.933594 L 23.847656 76.242188 L 27.546875 69.078125 L 14.292969 69.078125 L 14.777344 68.589844 C 19.15625 64.210938 23.632812 62.425781 30.230469 62.425781 L 30.976562 62.425781 L 31.472656 61.867188 C 32.769531 60.410156 33.910156 59.269531 35.230469 57.949219 C 42.289062 50.890625 49.792969 47.460938 58.167969 47.460938 Z M 45.195312 57.4375 C 44.753906 57.4375 44.332031 57.523438 43.921875 57.691406 C 43.515625 57.859375 43.15625 58.101562 42.84375 58.414062 C 42.53125 58.722656 42.292969 59.082031 42.125 59.492188 C 41.953125 59.898438 41.871094 60.324219 41.871094 60.765625 C 41.871094 61.203125 41.953125 61.628906 42.125 62.035156 C 42.292969 62.445312 42.53125 62.804688 42.84375 63.117188 C 43.15625 63.425781 43.515625 63.667969 43.921875 63.835938 C 44.332031 64.003906 44.753906 64.089844 45.195312 64.089844 C 45.636719 64.089844 46.0625 64.003906 46.46875 63.835938 C 46.875 63.667969 47.234375 63.425781 47.546875 63.117188 C 47.859375 62.804688 48.097656 62.445312 48.269531 62.035156 C 48.4375 61.628906 48.519531 61.203125 48.519531 60.765625 C 48.519531 60.324219 48.4375 59.898438 48.269531 59.492188 C 48.097656 59.082031 47.859375 58.722656 47.546875 58.414062 C 47.234375 58.101562 46.875 57.859375 46.46875 57.691406 C 46.0625 57.523438 45.636719 57.4375 45.195312 57.4375 Z M 21.539062 78.675781 L 22.914062 80.050781 C 21.964844 81.578125 21.8125 82.914062 21.933594 83.988281 C 23.027344 84.109375 24.390625 84.046875 25.953125 83.09375 L 27.3125 84.453125 C 27.027344 84.820312 26.726562 85.179688 26.421875 85.484375 C 23.761719 88.144531 20.269531 89.308594 16.945312 88.976562 C 16.777344 85.648438 17.941406 82.160156 20.601562 79.5 C 20.878906 79.21875 21.203125 78.945312 21.539062 78.675781 Z M 21.539062 78.675781 " fill-opacity="1" fill-rule="nonzero"/></g><g fill="#377dff" fill-opacity="1"><g transform="translate(88.316544, 92.62998)"><g><path d="M 15.453125 -51.796875 L 15.453125 0 L 4.5 0 L 4.5 -51.796875 Z M 15.453125 -51.796875 "/></g></g></g><g fill="#377dff" fill-opacity="1"><g transform="translate(108.291874, 92.62998)"><g><path d="M 4.296875 0 L 4.296875 -38.84375 L 14.5625 -38.84375 L 14.5625 -32 L 15.015625 -32 C 15.828125 -34.289062 17.179688 -36.085938 19.078125 -37.390625 C 20.972656 -38.703125 23.226562 -39.359375 25.84375 -39.359375 C 28.507812 -39.359375 30.773438 -38.691406 32.640625 -37.359375 C 34.515625 -36.035156 35.765625 -34.25 36.390625 -32 L 36.796875 -32 C 37.585938 -34.21875 39.023438 -36 41.109375 -37.34375 C 43.191406 -38.6875 45.65625 -39.359375 48.5 -39.359375 C 52.125 -39.359375 55.070312 -38.207031 57.34375 -35.90625 C 59.613281 -33.601562 60.75 -30.34375 60.75 -26.125 L 60.75 0 L 50 0 L 50 -24 C 50 -26.15625 49.425781 -27.769531 48.28125 -28.84375 C 47.132812 -29.925781 45.703125 -30.46875 43.984375 -30.46875 C 42.023438 -30.46875 40.5 -29.84375 39.40625 -28.59375 C 38.3125 -27.351562 37.765625 -25.726562 37.765625 -23.71875 L 37.765625 0 L 27.3125 0 L 27.3125 -24.234375 C 27.3125 -26.140625 26.765625 -27.65625 25.671875 -28.78125 C 24.585938 -29.90625 23.160156 -30.46875 21.390625 -30.46875 C 19.609375 -30.46875 18.109375 -29.816406 16.890625 -28.515625 C 15.679688 -27.210938 15.078125 -25.476562 15.078125 -23.3125 L 15.078125 0 Z M 4.296875 0 "/></g></g></g><g fill="#377dff" fill-opacity="1"><g transform="translate(173.224354, 92.62998)"><g><path d="M 4.296875 14.5625 L 4.296875 -38.84375 L 14.921875 -38.84375 L 14.921875 -32.328125 L 15.40625 -32.328125 C 15.894531 -33.390625 16.582031 -34.457031 17.46875 -35.53125 C 18.363281 -36.613281 19.546875 -37.519531 21.015625 -38.25 C 22.484375 -38.988281 24.296875 -39.359375 26.453125 -39.359375 C 29.304688 -39.359375 31.921875 -38.617188 34.296875 -37.140625 C 36.671875 -35.660156 38.578125 -33.441406 40.015625 -30.484375 C 41.460938 -27.523438 42.1875 -23.820312 42.1875 -19.375 C 42.1875 -15.039062 41.484375 -11.382812 40.078125 -8.40625 C 38.679688 -5.4375 36.796875 -3.1875 34.421875 -1.65625 C 32.046875 -0.132812 29.378906 0.625 26.421875 0.625 C 24.335938 0.625 22.566406 0.28125 21.109375 -0.40625 C 19.648438 -1.09375 18.457031 -1.960938 17.53125 -3.015625 C 16.613281 -4.078125 15.90625 -5.144531 15.40625 -6.21875 L 15.078125 -6.21875 L 15.078125 14.5625 Z M 14.84375 -19.421875 C 14.84375 -15.960938 15.554688 -13.179688 16.984375 -11.078125 C 18.410156 -8.984375 20.421875 -7.9375 23.015625 -7.9375 C 25.660156 -7.9375 27.679688 -9.003906 29.078125 -11.140625 C 30.484375 -13.273438 31.1875 -16.035156 31.1875 -19.421875 C 31.1875 -22.796875 30.488281 -25.53125 29.09375 -27.625 C 27.707031 -29.726562 25.679688 -30.78125 23.015625 -30.78125 C 20.398438 -30.78125 18.382812 -29.753906 16.96875 -27.703125 C 15.550781 -25.660156 14.84375 -22.898438 14.84375 -19.421875 Z M 14.84375 -19.421875 "/></g></g></g><g fill="#377dff" fill-opacity="1"><g transform="translate(218.257352, 92.62998)"><g><path d="M 15.375 0.734375 C 11.664062 0.734375 8.585938 -0.234375 6.140625 -2.171875 C 3.703125 -4.109375 2.484375 -7 2.484375 -10.84375 C 2.484375 -13.75 3.164062 -16.023438 4.53125 -17.671875 C 5.894531 -19.328125 7.6875 -20.535156 9.90625 -21.296875 C 12.125 -22.066406 14.515625 -22.570312 17.078125 -22.8125 C 20.441406 -23.144531 22.847656 -23.5 24.296875 -23.875 C 25.753906 -24.25 26.484375 -25.054688 26.484375 -26.296875 L 26.484375 -26.453125 C 26.484375 -28.054688 25.976562 -29.296875 24.96875 -30.171875 C 23.96875 -31.046875 22.550781 -31.484375 20.71875 -31.484375 C 18.769531 -31.484375 17.222656 -31.0625 16.078125 -30.21875 C 14.929688 -29.375 14.175781 -28.304688 13.8125 -27.015625 L 3.84375 -27.8125 C 4.582031 -31.351562 6.421875 -34.160156 9.359375 -36.234375 C 12.304688 -38.316406 16.109375 -39.359375 20.765625 -39.359375 C 23.648438 -39.359375 26.347656 -38.898438 28.859375 -37.984375 C 31.367188 -37.078125 33.394531 -35.65625 34.9375 -33.71875 C 36.476562 -31.789062 37.25 -29.285156 37.25 -26.203125 L 37.25 0 L 27.03125 0 L 27.03125 -5.390625 L 26.734375 -5.390625 C 25.785156 -3.585938 24.367188 -2.113281 22.484375 -0.96875 C 20.609375 0.164062 18.238281 0.734375 15.375 0.734375 Z M 18.46875 -6.703125 C 20.820312 -6.703125 22.757812 -7.390625 24.28125 -8.765625 C 25.800781 -10.140625 26.5625 -11.847656 26.5625 -13.890625 L 26.5625 -18 C 26.132812 -17.71875 25.476562 -17.46875 24.59375 -17.25 C 23.707031 -17.03125 22.765625 -16.835938 21.765625 -16.671875 C 20.765625 -16.515625 19.863281 -16.378906 19.0625 -16.265625 C 17.175781 -15.992188 15.65625 -15.460938 14.5 -14.671875 C 13.34375 -13.878906 12.765625 -12.722656 12.765625 -11.203125 C 12.765625 -9.722656 13.300781 -8.601562 14.375 -7.84375 C 15.445312 -7.082031 16.8125 -6.703125 18.46875 -6.703125 Z M 18.46875 -6.703125 "/></g></g></g><g fill="#377dff" fill-opacity="1"><g transform="translate(259.573414, 92.62998)"><g><path d="M 4.296875 0 L 4.296875 -38.84375 L 14.75 -38.84375 L 14.75 -32.0625 L 15.15625 -32.0625 C 15.863281 -34.476562 17.046875 -36.304688 18.703125 -37.546875 C 20.359375 -38.785156 22.285156 -39.40625 24.484375 -39.40625 C 25.523438 -39.40625 26.492188 -39.273438 27.390625 -39.015625 C 28.285156 -38.765625 29.085938 -38.421875 29.796875 -37.984375 L 26.5625 -29.078125 C 26.050781 -29.335938 25.492188 -29.554688 24.890625 -29.734375 C 24.296875 -29.910156 23.628906 -30 22.890625 -30 C 20.710938 -30 18.867188 -29.253906 17.359375 -27.765625 C 15.847656 -26.285156 15.085938 -24.359375 15.078125 -21.984375 L 15.078125 0 Z M 4.296875 0 "/></g></g></g><g fill="#377dff" fill-opacity="1"><g transform="translate(290.092684, 92.62998)"><g><path d="M 15.375 0.734375 C 11.664062 0.734375 8.585938 -0.234375 6.140625 -2.171875 C 3.703125 -4.109375 2.484375 -7 2.484375 -10.84375 C 2.484375 -13.75 3.164062 -16.023438 4.53125 -17.671875 C 5.894531 -19.328125 7.6875 -20.535156 9.90625 -21.296875 C 12.125 -22.066406 14.515625 -22.570312 17.078125 -22.8125 C 20.441406 -23.144531 22.847656 -23.5 24.296875 -23.875 C 25.753906 -24.25 26.484375 -25.054688 26.484375 -26.296875 L 26.484375 -26.453125 C 26.484375 -28.054688 25.976562 -29.296875 24.96875 -30.171875 C 23.96875 -31.046875 22.550781 -31.484375 20.71875 -31.484375 C 18.769531 -31.484375 17.222656 -31.0625 16.078125 -30.21875 C 14.929688 -29.375 14.175781 -28.304688 13.8125 -27.015625 L 3.84375 -27.8125 C 4.582031 -31.351562 6.421875 -34.160156 9.359375 -36.234375 C 12.304688 -38.316406 16.109375 -39.359375 20.765625 -39.359375 C 23.648438 -39.359375 26.347656 -38.898438 28.859375 -37.984375 C 31.367188 -37.078125 33.394531 -35.65625 34.9375 -33.71875 C 36.476562 -31.789062 37.25 -29.285156 37.25 -26.203125 L 37.25 0 L 27.03125 0 L 27.03125 -5.390625 L 26.734375 -5.390625 C 25.785156 -3.585938 24.367188 -2.113281 22.484375 -0.96875 C 20.609375 0.164062 18.238281 0.734375 15.375 0.734375 Z M 18.46875 -6.703125 C 20.820312 -6.703125 22.757812 -7.390625 24.28125 -8.765625 C 25.800781 -10.140625 26.5625 -11.847656 26.5625 -13.890625 L 26.5625 -18 C 26.132812 -17.71875 25.476562 -17.46875 24.59375 -17.25 C 23.707031 -17.03125 22.765625 -16.835938 21.765625 -16.671875 C 20.765625 -16.515625 19.863281 -16.378906 19.0625 -16.265625 C 17.175781 -15.992188 15.65625 -15.460938 14.5 -14.671875 C 13.34375 -13.878906 12.765625 -12.722656 12.765625 -11.203125 C 12.765625 -9.722656 13.300781 -8.601562 14.375 -7.84375 C 15.445312 -7.082031 16.8125 -6.703125 18.46875 -6.703125 Z M 18.46875 -6.703125 "/></g></g></g><g fill="#377dff" fill-opacity="1"><g transform="translate(331.408747, 92.62998)"><g><path d="M 4.5 0 L 4.5 -51.796875 L 15.28125 -51.796875 L 15.28125 -32.328125 L 15.609375 -32.328125 C 16.097656 -33.390625 16.785156 -34.457031 17.671875 -35.53125 C 18.566406 -36.613281 19.75 -37.519531 21.21875 -38.25 C 22.6875 -38.988281 24.5 -39.359375 26.65625 -39.359375 C 29.507812 -39.359375 32.125 -38.617188 34.5 -37.140625 C 36.875 -35.660156 38.78125 -33.441406 40.21875 -30.484375 C 41.664062 -27.523438 42.390625 -23.820312 42.390625 -19.375 C 42.390625 -15.039062 41.6875 -11.382812 40.28125 -8.40625 C 38.882812 -5.4375 37 -3.1875 34.625 -1.65625 C 32.25 -0.132812 29.582031 0.625 26.625 0.625 C 24.539062 0.625 22.769531 0.28125 21.3125 -0.40625 C 19.851562 -1.09375 18.660156 -1.960938 17.734375 -3.015625 C 16.816406 -4.078125 16.109375 -5.144531 15.609375 -6.21875 L 15.125 -6.21875 L 15.125 0 Z M 15.046875 -19.421875 C 15.046875 -15.960938 15.757812 -13.179688 17.1875 -11.078125 C 18.613281 -8.984375 20.625 -7.9375 23.21875 -7.9375 C 25.863281 -7.9375 27.882812 -9.003906 29.28125 -11.140625 C 30.6875 -13.273438 31.390625 -16.035156 31.390625 -19.421875 C 31.390625 -22.796875 30.691406 -25.53125 29.296875 -27.625 C 27.910156 -29.726562 25.882812 -30.78125 23.21875 -30.78125 C 20.601562 -30.78125 18.585938 -29.753906 17.171875 -27.703125 C 15.753906 -25.660156 15.046875 -22.898438 15.046875 -19.421875 Z M 15.046875 -19.421875 "/></g></g></g><g fill="#377dff" fill-opacity="1"><g transform="translate(376.644033, 92.62998)"><g><path d="M 15.078125 -51.796875 L 15.078125 0 L 4.296875 0 L 4.296875 -51.796875 Z M 15.078125 -51.796875 "/></g></g></g><g fill="#377dff" fill-opacity="1"><g transform="translate(396.012525, 92.62998)"><g><path d="M 22 0.765625 C 18.019531 0.765625 14.585938 -0.046875 11.703125 -1.671875 C 8.828125 -3.304688 6.613281 -5.617188 5.0625 -8.609375 C 3.507812 -11.597656 2.734375 -15.144531 2.734375 -19.25 C 2.734375 -23.238281 3.507812 -26.742188 5.0625 -29.765625 C 6.613281 -32.785156 8.800781 -35.140625 11.625 -36.828125 C 14.445312 -38.515625 17.765625 -39.359375 21.578125 -39.359375 C 24.992188 -39.359375 28.082031 -38.628906 30.84375 -37.171875 C 33.601562 -35.722656 35.789062 -33.535156 37.40625 -30.609375 C 39.019531 -27.679688 39.828125 -24.019531 39.828125 -19.625 L 39.828125 -16.671875 L 13.375 -16.671875 L 13.375 -16.640625 C 13.375 -13.742188 14.164062 -11.457031 15.75 -9.78125 C 17.34375 -8.113281 19.488281 -7.28125 22.1875 -7.28125 C 23.988281 -7.28125 25.546875 -7.660156 26.859375 -8.421875 C 28.171875 -9.179688 29.097656 -10.300781 29.640625 -11.78125 L 39.609375 -11.125 C 38.847656 -7.519531 36.921875 -4.632812 33.828125 -2.46875 C 30.742188 -0.3125 26.800781 0.765625 22 0.765625 Z M 13.375 -23.34375 L 29.6875 -23.34375 C 29.675781 -25.65625 28.9375 -27.5625 27.46875 -29.0625 C 26 -30.5625 24.09375 -31.3125 21.75 -31.3125 C 19.351562 -31.3125 17.390625 -30.535156 15.859375 -28.984375 C 14.328125 -27.429688 13.5 -25.550781 13.375 -23.34375 Z M 13.375 -23.34375 "/></g></g></g><g fill="#377dff" fill-opacity="1"><g transform="translate(438.567575, 92.62998)"><g><path d="M 36.625 -27.765625 L 26.75 -27.15625 C 26.488281 -28.40625 25.804688 -29.476562 24.703125 -30.375 C 23.609375 -31.269531 22.128906 -31.71875 20.265625 -31.71875 C 18.585938 -31.71875 17.171875 -31.363281 16.015625 -30.65625 C 14.867188 -29.957031 14.300781 -29.03125 14.3125 -27.875 C 14.300781 -26.945312 14.671875 -26.160156 15.421875 -25.515625 C 16.171875 -24.878906 17.445312 -24.363281 19.25 -23.96875 L 26.28125 -22.5625 C 33.75 -21.03125 37.488281 -17.519531 37.5 -12.03125 C 37.5 -9.488281 36.753906 -7.253906 35.265625 -5.328125 C 33.773438 -3.410156 31.726562 -1.914062 29.125 -0.84375 C 26.53125 0.226562 23.554688 0.765625 20.203125 0.765625 C 15.066406 0.765625 10.972656 -0.304688 7.921875 -2.453125 C 4.867188 -4.609375 3.085938 -7.539062 2.578125 -11.25 L 13.171875 -11.8125 C 13.515625 -10.226562 14.296875 -9.03125 15.515625 -8.21875 C 16.734375 -7.40625 18.304688 -7 20.234375 -7 C 22.117188 -7 23.640625 -7.367188 24.796875 -8.109375 C 25.953125 -8.859375 26.539062 -9.804688 26.5625 -10.953125 C 26.507812 -12.867188 24.847656 -14.160156 21.578125 -14.828125 L 14.84375 -16.15625 C 7.320312 -17.65625 3.578125 -21.359375 3.609375 -27.265625 C 3.597656 -31.003906 5.097656 -33.953125 8.109375 -36.109375 C 11.117188 -38.273438 15.109375 -39.359375 20.078125 -39.359375 C 24.984375 -39.359375 28.847656 -38.316406 31.671875 -36.234375 C 34.492188 -34.160156 36.144531 -31.335938 36.625 -27.765625 Z M 36.625 -27.765625 "/></g></g></g><g fill="#377dff" fill-opacity="1"><g transform="translate(478.568829, 92.62998)"><g><path d="M 10.59375 0.65625 C 8.925781 0.65625 7.492188 0.0664062 6.296875 -1.109375 C 5.097656 -2.296875 4.507812 -3.726562 4.53125 -5.40625 C 4.507812 -7.0625 5.097656 -8.476562 6.296875 -9.65625 C 7.492188 -10.84375 8.925781 -11.4375 10.59375 -11.4375 C 12.21875 -11.4375 13.628906 -10.84375 14.828125 -9.65625 C 16.035156 -8.476562 16.648438 -7.0625 16.671875 -5.40625 C 16.648438 -3.726562 16.035156 -2.296875 14.828125 -1.109375 C 13.628906 0.0664062 12.21875 0.65625 10.59375 0.65625 Z M 10.59375 0.65625 "/></g></g></g><g fill="#377dff" fill-opacity="1"><g transform="translate(499.757838, 92.62998)"><g><path d="M 15.078125 -51.796875 L 15.078125 0 L 4.296875 0 L 4.296875 -51.796875 Z M 15.078125 -51.796875 "/></g></g></g><g fill="#377dff" fill-opacity="1"><g transform="translate(519.126329, 92.62998)"><g><path d="M 15.375 0.734375 C 11.664062 0.734375 8.585938 -0.234375 6.140625 -2.171875 C 3.703125 -4.109375 2.484375 -7 2.484375 -10.84375 C 2.484375 -13.75 3.164062 -16.023438 4.53125 -17.671875 C 5.894531 -19.328125 7.6875 -20.535156 9.90625 -21.296875 C 12.125 -22.066406 14.515625 -22.570312 17.078125 -22.8125 C 20.441406 -23.144531 22.847656 -23.5 24.296875 -23.875 C 25.753906 -24.25 26.484375 -25.054688 26.484375 -26.296875 L 26.484375 -26.453125 C 26.484375 -28.054688 25.976562 -29.296875 24.96875 -30.171875 C 23.96875 -31.046875 22.550781 -31.484375 20.71875 -31.484375 C 18.769531 -31.484375 17.222656 -31.0625 16.078125 -30.21875 C 14.929688 -29.375 14.175781 -28.304688 13.8125 -27.015625 L 3.84375 -27.8125 C 4.582031 -31.351562 6.421875 -34.160156 9.359375 -36.234375 C 12.304688 -38.316406 16.109375 -39.359375 20.765625 -39.359375 C 23.648438 -39.359375 26.347656 -38.898438 28.859375 -37.984375 C 31.367188 -37.078125 33.394531 -35.65625 34.9375 -33.71875 C 36.476562 -31.789062 37.25 -29.285156 37.25 -26.203125 L 37.25 0 L 27.03125 0 L 27.03125 -5.390625 L 26.734375 -5.390625 C 25.785156 -3.585938 24.367188 -2.113281 22.484375 -0.96875 C 20.609375 0.164062 18.238281 0.734375 15.375 0.734375 Z M 18.46875 -6.703125 C 20.820312 -6.703125 22.757812 -7.390625 24.28125 -8.765625 C 25.800781 -10.140625 26.5625 -11.847656 26.5625 -13.890625 L 26.5625 -18 C 26.132812 -17.71875 25.476562 -17.46875 24.59375 -17.25 C 23.707031 -17.03125 22.765625 -16.835938 21.765625 -16.671875 C 20.765625 -16.515625 19.863281 -16.378906 19.0625 -16.265625 C 17.175781 -15.992188 15.65625 -15.460938 14.5 -14.671875 C 13.34375 -13.878906 12.765625 -12.722656 12.765625 -11.203125 C 12.765625 -9.722656 13.300781 -8.601562 14.375 -7.84375 C 15.445312 -7.082031 16.8125 -6.703125 18.46875 -6.703125 Z M 18.46875 -6.703125 "/></g></g></g></svg>