<svg xmlns="http://www.w3.org/2000/svg" xmlns:xlink="http://www.w3.org/1999/xlink" width="491" zoomAndPan="magnify" viewBox="0 0 368.25 94.499997" height="126" preserveAspectRatio="xMidYMid meet" version="1.0"><defs><g/><clipPath id="6f9d5db2c2"><path d="M 1.121094 2.121094 L 82.4375 2.121094 L 82.4375 83.441406 L 1.121094 83.441406 Z M 1.121094 2.121094 " clip-rule="nonzero"/></clipPath></defs><g clip-path="url(#6f9d5db2c2)"><path fill="#377dff" d="M 41.664062 2.121094 C 19.304688 2.121094 1.121094 20.308594 1.121094 42.664062 C 1.121094 65.019531 19.304688 83.207031 41.664062 83.207031 C 64.019531 83.207031 82.207031 65.019531 82.207031 42.664062 C 82.207031 20.308594 64.019531 2.121094 41.664062 2.121094 Z M 62.464844 21.511719 L 62.9375 21.511719 C 63.273438 29.96875 59.414062 38.460938 51.699219 46.175781 L 51.625 46.25 C 50.121094 47.945312 49 49.023438 47.628906 50.085938 L 46.949219 50.617188 L 46.949219 51.476562 C 46.949219 58.472656 45.058594 63.21875 40.417969 67.859375 L 39.898438 68.375 L 39.898438 54.320312 L 32.351562 58.058594 L 26.082031 52.023438 L 30.003906 44.425781 L 15.953125 44.425781 L 16.46875 43.910156 C 21.109375 39.269531 25.855469 37.375 32.847656 37.375 L 33.640625 37.375 L 34.164062 36.785156 C 35.539062 35.238281 36.75 34.03125 38.152344 32.628906 C 45.632812 25.148438 53.585938 21.511719 62.464844 21.511719 Z M 48.714844 32.085938 C 48.246094 32.085938 47.796875 32.175781 47.363281 32.355469 C 46.933594 32.535156 46.550781 32.789062 46.222656 33.121094 C 45.890625 33.449219 45.636719 33.832031 45.457031 34.265625 C 45.277344 34.695312 45.1875 35.144531 45.1875 35.613281 C 45.1875 36.082031 45.277344 36.53125 45.457031 36.960938 C 45.636719 37.394531 45.890625 37.777344 46.222656 38.105469 C 46.550781 38.4375 46.933594 38.691406 47.363281 38.871094 C 47.796875 39.050781 48.246094 39.140625 48.714844 39.140625 C 49.179688 39.140625 49.632812 39.050781 50.0625 38.871094 C 50.496094 38.691406 50.875 38.4375 51.207031 38.105469 C 51.539062 37.777344 51.792969 37.394531 51.972656 36.960938 C 52.148438 36.53125 52.238281 36.082031 52.238281 35.613281 C 52.238281 35.144531 52.148438 34.695312 51.972656 34.265625 C 51.792969 33.832031 51.539062 33.449219 51.207031 33.121094 C 50.875 32.789062 50.496094 32.535156 50.0625 32.355469 C 49.632812 32.175781 49.179688 32.085938 48.714844 32.085938 Z M 23.636719 54.605469 L 25.09375 56.058594 C 24.085938 57.679688 23.925781 59.09375 24.050781 60.234375 C 25.210938 60.363281 26.65625 60.292969 28.316406 59.285156 L 29.757812 60.726562 C 29.453125 61.117188 29.136719 61.496094 28.808594 61.820312 C 25.988281 64.640625 22.289062 65.875 18.765625 65.523438 C 18.585938 61.996094 19.820312 58.296875 22.640625 55.476562 C 22.9375 55.179688 23.28125 54.886719 23.636719 54.605469 Z M 23.636719 54.605469 " fill-opacity="1" fill-rule="nonzero"/></g><g fill="#377dff" fill-opacity="1"><g transform="translate(86.602246, 59.767632)"><g><path d="M 10.328125 -36.171875 L 10.328125 0 L 3.890625 0 L 3.890625 -36.171875 Z M 10.328125 -36.171875 "/></g></g></g><g fill="#377dff" fill-opacity="1"><g transform="translate(100.802859, 59.767632)"><g><path d="M 16.65625 -25.140625 C 20.507812 -25.140625 23.066406 -23.625 24.328125 -20.59375 C 26.023438 -23.625 28.710938 -25.140625 32.390625 -25.140625 C 38.285156 -25.140625 41.234375 -21.578125 41.234375 -14.453125 L 41.234375 0 L 35.09375 0 L 35.09375 -14.046875 C 35.09375 -17.765625 33.578125 -19.625 30.546875 -19.625 C 28.921875 -19.625 27.640625 -19.066406 26.703125 -17.953125 C 25.765625 -16.847656 25.296875 -15.289062 25.296875 -13.28125 L 25.296875 0 L 19.15625 0 L 19.15625 -14.765625 C 19.15625 -16.296875 18.796875 -17.488281 18.078125 -18.34375 C 17.367188 -19.195312 16.332031 -19.625 14.96875 -19.625 C 13.0625 -19.625 11.644531 -19.023438 10.71875 -17.828125 C 9.800781 -16.640625 9.34375 -15.160156 9.34375 -13.390625 L 9.34375 0 L 3.21875 0 L 3.21875 -24.53125 L 9.046875 -24.53125 L 9.046875 -20.6875 L 9.140625 -20.6875 C 10.578125 -23.65625 13.082031 -25.140625 16.65625 -25.140625 Z M 16.65625 -25.140625 "/></g></g></g><g fill="#377dff" fill-opacity="1"><g transform="translate(145.243622, 59.767632)"><g><path d="M 17.890625 -25.140625 C 21.429688 -25.140625 24.320312 -23.945312 26.5625 -21.5625 C 28.8125 -19.175781 29.9375 -16.078125 29.9375 -12.265625 C 29.9375 -8.617188 28.835938 -5.5625 26.640625 -3.09375 C 24.441406 -0.625 21.59375 0.609375 18.09375 0.609375 C 14.507812 0.609375 11.734375 -0.628906 9.765625 -3.109375 L 9.609375 -3.109375 L 9.609375 11.65625 L 3.46875 11.65625 L 3.46875 -24.53125 L 9.296875 -24.53125 L 9.296875 -20.84375 L 9.40625 -20.84375 C 11.207031 -23.707031 14.035156 -25.140625 17.890625 -25.140625 Z M 9.40625 -12.265625 C 9.40625 -10.148438 10.078125 -8.394531 11.421875 -7 C 12.765625 -5.601562 14.492188 -4.90625 16.609375 -4.90625 C 18.617188 -4.90625 20.320312 -5.59375 21.71875 -6.96875 C 23.113281 -8.351562 23.8125 -10.117188 23.8125 -12.265625 C 23.8125 -14.335938 23.117188 -16.082031 21.734375 -17.5 C 20.359375 -18.914062 18.628906 -19.625 16.546875 -19.625 C 14.546875 -19.625 12.851562 -18.925781 11.46875 -17.53125 C 10.09375 -16.132812 9.40625 -14.378906 9.40625 -12.265625 Z M 9.40625 -12.265625 "/></g></g></g><g fill="#377dff" fill-opacity="1"><g transform="translate(177.424858, 59.767632)"><g><path d="M 13.84375 -25.140625 C 17.351562 -25.140625 19.976562 -24.296875 21.71875 -22.609375 C 23.457031 -20.921875 24.328125 -18.269531 24.328125 -14.65625 L 24.328125 0 L 18.796875 0 L 18.796875 -3.375 L 18.65625 -3.375 C 16.976562 -0.71875 14.351562 0.609375 10.78125 0.609375 C 8.125 0.609375 5.96875 -0.078125 4.3125 -1.453125 C 2.664062 -2.835938 1.84375 -4.601562 1.84375 -6.75 C 1.84375 -9.601562 3.035156 -11.738281 5.421875 -13.15625 C 7.804688 -14.570312 11.632812 -15.28125 16.90625 -15.28125 L 18.796875 -15.28125 L 18.796875 -16 C 18.796875 -17.425781 18.285156 -18.539062 17.265625 -19.34375 C 16.242188 -20.144531 14.882812 -20.546875 13.1875 -20.546875 C 10.664062 -20.546875 8.484375 -19.691406 6.640625 -17.984375 L 3.421875 -21.203125 C 5.972656 -23.828125 9.445312 -25.140625 13.84375 -25.140625 Z M 7.96875 -7.203125 C 7.96875 -6.148438 8.398438 -5.347656 9.265625 -4.796875 C 10.140625 -4.253906 11.15625 -3.984375 12.3125 -3.984375 C 14.425781 -3.984375 15.972656 -4.503906 16.953125 -5.546875 C 17.941406 -6.585938 18.4375 -7.890625 18.4375 -9.453125 L 18.4375 -10.984375 L 16.65625 -10.984375 C 10.863281 -10.984375 7.96875 -9.722656 7.96875 -7.203125 Z M 7.96875 -7.203125 "/></g></g></g><g fill="#377dff" fill-opacity="1"><g transform="translate(204.855529, 59.767632)"><g><path d="M 16.96875 -25.140625 C 17.476562 -25.140625 18.207031 -25.019531 19.15625 -24.78125 L 19.15625 -18.859375 C 18.101562 -19.160156 17.117188 -19.3125 16.203125 -19.3125 C 14.191406 -19.3125 12.585938 -18.710938 11.390625 -17.515625 C 10.203125 -16.328125 9.609375 -14.75 9.609375 -12.78125 L 9.609375 0 L 3.46875 0 L 3.46875 -24.53125 L 9.609375 -24.53125 L 9.609375 -20.640625 L 9.703125 -20.640625 C 10.390625 -22.066406 11.363281 -23.171875 12.625 -23.953125 C 13.882812 -24.742188 15.332031 -25.140625 16.96875 -25.140625 Z M 16.96875 -25.140625 "/></g></g></g><g fill="#377dff" fill-opacity="1"><g transform="translate(224.726169, 59.767632)"><g><path d="M 13.84375 -25.140625 C 17.351562 -25.140625 19.976562 -24.296875 21.71875 -22.609375 C 23.457031 -20.921875 24.328125 -18.269531 24.328125 -14.65625 L 24.328125 0 L 18.796875 0 L 18.796875 -3.375 L 18.65625 -3.375 C 16.976562 -0.71875 14.351562 0.609375 10.78125 0.609375 C 8.125 0.609375 5.96875 -0.078125 4.3125 -1.453125 C 2.664062 -2.835938 1.84375 -4.601562 1.84375 -6.75 C 1.84375 -9.601562 3.035156 -11.738281 5.421875 -13.15625 C 7.804688 -14.570312 11.632812 -15.28125 16.90625 -15.28125 L 18.796875 -15.28125 L 18.796875 -16 C 18.796875 -17.425781 18.285156 -18.539062 17.265625 -19.34375 C 16.242188 -20.144531 14.882812 -20.546875 13.1875 -20.546875 C 10.664062 -20.546875 8.484375 -19.691406 6.640625 -17.984375 L 3.421875 -21.203125 C 5.972656 -23.828125 9.445312 -25.140625 13.84375 -25.140625 Z M 7.96875 -7.203125 C 7.96875 -6.148438 8.398438 -5.347656 9.265625 -4.796875 C 10.140625 -4.253906 11.15625 -3.984375 12.3125 -3.984375 C 14.425781 -3.984375 15.972656 -4.503906 16.953125 -5.546875 C 17.941406 -6.585938 18.4375 -7.890625 18.4375 -9.453125 L 18.4375 -10.984375 L 16.65625 -10.984375 C 10.863281 -10.984375 7.96875 -9.722656 7.96875 -7.203125 Z M 7.96875 -7.203125 "/></g></g></g><g fill="#377dff" fill-opacity="1"><g transform="translate(252.15684, 59.767632)"><g><path d="M 9.609375 -38.625 L 9.609375 -21.40625 L 9.765625 -21.40625 C 11.734375 -23.894531 14.507812 -25.140625 18.09375 -25.140625 C 21.5625 -25.140625 24.398438 -23.894531 26.609375 -21.40625 C 28.828125 -18.914062 29.9375 -15.867188 29.9375 -12.265625 C 29.9375 -8.453125 28.8125 -5.351562 26.5625 -2.96875 C 24.320312 -0.582031 21.429688 0.609375 17.890625 0.609375 C 14.003906 0.609375 11.175781 -0.816406 9.40625 -3.671875 L 9.296875 -3.671875 L 9.296875 0 L 3.46875 0 L 3.46875 -38.625 Z M 9.40625 -12.265625 C 9.40625 -10.179688 10.078125 -8.429688 11.421875 -7.015625 C 12.765625 -5.609375 14.492188 -4.90625 16.609375 -4.90625 C 18.679688 -4.90625 20.398438 -5.609375 21.765625 -7.015625 C 23.128906 -8.429688 23.8125 -10.179688 23.8125 -12.265625 C 23.8125 -14.378906 23.132812 -16.132812 21.78125 -17.53125 C 20.4375 -18.925781 18.691406 -19.625 16.546875 -19.625 C 14.546875 -19.625 12.851562 -18.925781 11.46875 -17.53125 C 10.09375 -16.132812 9.40625 -14.378906 9.40625 -12.265625 Z M 9.40625 -12.265625 "/></g></g></g><g fill="#377dff" fill-opacity="1"><g transform="translate(284.338076, 59.767632)"><g><path d="M 9.703125 -38.625 L 9.703125 0 L 3.578125 0 L 3.578125 -38.625 Z M 9.703125 -38.625 "/></g></g></g><g fill="#377dff" fill-opacity="1"><g transform="translate(297.619237, 59.767632)"><g><path d="M 15.578125 -25.140625 C 19.265625 -25.140625 22.101562 -23.910156 24.09375 -21.453125 C 26.082031 -19.003906 27.078125 -15.804688 27.078125 -11.859375 L 27.078125 -10.109375 L 8.375 -10.109375 C 8.582031 -8.335938 9.289062 -6.925781 10.5 -5.875 C 11.707031 -4.820312 13.195312 -4.296875 14.96875 -4.296875 C 17.5625 -4.296875 19.757812 -5.398438 21.5625 -7.609375 L 25.953125 -4.296875 C 23.296875 -1.023438 19.835938 0.609375 15.578125 0.609375 C 11.835938 0.609375 8.679688 -0.582031 6.109375 -2.96875 C 3.535156 -5.351562 2.25 -8.453125 2.25 -12.265625 C 2.25 -16.078125 3.535156 -19.175781 6.109375 -21.5625 C 8.679688 -23.945312 11.835938 -25.140625 15.578125 -25.140625 Z M 20.953125 -14.71875 C 20.910156 -16.65625 20.3125 -18.109375 19.15625 -19.078125 C 18 -20.054688 16.5 -20.546875 14.65625 -20.546875 C 12.820312 -20.546875 11.375 -20.007812 10.3125 -18.9375 C 9.257812 -17.863281 8.613281 -16.457031 8.375 -14.71875 Z M 20.953125 -14.71875 "/></g></g></g><g fill="#377dff" fill-opacity="1"><g transform="translate(326.939913, 59.767632)"><g><path d="M 11.859375 -25.140625 C 15.878906 -25.140625 18.804688 -23.894531 20.640625 -21.40625 L 16.546875 -17.734375 C 15.328125 -19.398438 13.726562 -20.234375 11.75 -20.234375 C 10.757812 -20.234375 9.914062 -19.992188 9.21875 -19.515625 C 8.519531 -19.035156 8.171875 -18.40625 8.171875 -17.625 C 8.171875 -16.4375 9.378906 -15.585938 11.796875 -15.078125 L 14 -14.5625 C 16.6875 -13.976562 18.59375 -13.082031 19.71875 -11.875 C 20.84375 -10.664062 21.40625 -9.125 21.40625 -7.25 C 21.40625 -4.863281 20.453125 -2.957031 18.546875 -1.53125 C 16.640625 -0.101562 14.050781 0.609375 10.78125 0.609375 C 6.65625 0.609375 3.488281 -0.648438 1.28125 -3.171875 L 5.359375 -7 C 6.421875 -5.84375 7.394531 -5.050781 8.28125 -4.625 C 9.164062 -4.195312 10.132812 -3.984375 11.1875 -3.984375 C 12.3125 -3.984375 13.273438 -4.238281 14.078125 -4.75 C 14.878906 -5.257812 15.28125 -5.941406 15.28125 -6.796875 C 15.28125 -8.191406 14.019531 -9.179688 11.5 -9.765625 C 8.226562 -10.515625 6.179688 -11.097656 5.359375 -11.515625 C 4.546875 -11.941406 3.890625 -12.453125 3.390625 -13.046875 C 2.898438 -13.648438 2.550781 -14.300781 2.34375 -15 C 2.144531 -15.695312 2.046875 -16.4375 2.046875 -17.21875 C 2.046875 -19.632812 2.972656 -21.554688 4.828125 -22.984375 C 6.679688 -24.421875 9.023438 -25.140625 11.859375 -25.140625 Z M 11.859375 -25.140625 "/></g></g></g></svg>