<svg xmlns="http://www.w3.org/2000/svg" xmlns:xlink="http://www.w3.org/1999/xlink" width="489" zoomAndPan="magnify" viewBox="0 0 366.75 69.749997" height="93" preserveAspectRatio="xMidYMid meet" version="1.0"><defs><g/><clipPath id="c514f29245"><path d="M 0.53125 0 L 365.96875 0 L 365.96875 69.5 L 0.53125 69.5 Z M 0.53125 0 " clip-rule="nonzero"/></clipPath><clipPath id="cdcd9b944d"><path d="M 0.53125 0.351562 L 67 0.351562 L 67 66.863281 L 0.53125 66.863281 Z M 0.53125 0.351562 " clip-rule="nonzero"/></clipPath></defs><g clip-path="url(#c514f29245)"><path fill="#ffffff" d="M 0.53125 0 L 365.96875 0 L 365.96875 69.5 L 0.53125 69.5 Z M 0.53125 0 " fill-opacity="1" fill-rule="nonzero"/></g><g clip-path="url(#cdcd9b944d)"><path fill="#377dff" d="M 33.621094 0.351562 C 15.375 0.351562 0.53125 15.195312 0.53125 33.445312 C 0.53125 51.695312 15.375 66.539062 33.621094 66.539062 C 51.871094 66.539062 66.714844 51.695312 66.714844 33.445312 C 66.714844 15.195312 51.871094 0.351562 33.621094 0.351562 Z M 50.601562 16.179688 L 50.988281 16.179688 C 51.261719 23.082031 48.109375 30.015625 41.8125 36.3125 L 41.785156 36.34375 L 41.753906 36.375 C 40.527344 37.757812 39.609375 38.636719 38.492188 39.503906 L 37.9375 39.9375 L 37.9375 40.640625 C 37.9375 46.347656 36.394531 50.222656 32.605469 54.011719 L 32.183594 54.429688 L 32.183594 42.960938 L 26.023438 46.007812 L 20.902344 41.082031 L 24.109375 34.882812 L 12.636719 34.882812 L 13.058594 34.460938 C 16.847656 30.675781 20.722656 29.128906 26.429688 29.128906 L 27.074219 29.128906 L 27.503906 28.644531 C 28.625 27.382812 29.613281 26.398438 30.757812 25.253906 C 36.863281 19.148438 43.355469 16.179688 50.601562 16.179688 Z M 39.378906 24.8125 C 38.996094 24.8125 38.628906 24.886719 38.277344 25.03125 C 37.925781 25.175781 37.613281 25.386719 37.34375 25.65625 C 37.074219 25.925781 36.867188 26.238281 36.71875 26.589844 C 36.574219 26.941406 36.5 27.308594 36.5 27.691406 C 36.5 28.070312 36.574219 28.4375 36.71875 28.792969 C 36.867188 29.144531 37.074219 29.457031 37.34375 29.726562 C 37.613281 29.996094 37.925781 30.203125 38.277344 30.347656 C 38.628906 30.496094 38.996094 30.566406 39.378906 30.566406 C 39.757812 30.566406 40.125 30.496094 40.480469 30.347656 C 40.832031 30.203125 41.144531 29.996094 41.414062 29.726562 C 41.683594 29.457031 41.890625 29.144531 42.035156 28.792969 C 42.183594 28.4375 42.253906 28.070312 42.253906 27.691406 C 42.253906 27.308594 42.183594 26.941406 42.035156 26.589844 C 41.890625 26.238281 41.683594 25.925781 41.414062 25.65625 C 41.144531 25.386719 40.832031 25.175781 40.480469 25.03125 C 40.125 24.886719 39.757812 24.8125 39.378906 24.8125 Z M 18.910156 43.191406 L 20.097656 44.378906 C 19.277344 45.699219 19.144531 46.855469 19.25 47.785156 C 20.195312 47.890625 21.375 47.835938 22.726562 47.011719 L 23.90625 48.1875 C 23.65625 48.507812 23.398438 48.816406 23.132812 49.082031 C 20.832031 51.382812 17.808594 52.390625 14.933594 52.101562 C 14.789062 49.222656 15.792969 46.203125 18.097656 43.902344 C 18.339844 43.660156 18.617188 43.421875 18.910156 43.191406 Z M 18.910156 43.191406 " fill-opacity="1" fill-rule="nonzero"/></g><g fill="#377dff" fill-opacity="1"><g transform="translate(71.052673, 43.346151)"><g><path d="M 7.609375 -26.6875 L 7.609375 0 L 2.859375 0 L 2.859375 -26.6875 Z M 7.609375 -26.6875 "/></g></g></g><g fill="#377dff" fill-opacity="1"><g transform="translate(81.534592, 43.346151)"><g><path d="M 12.296875 -18.546875 C 15.128906 -18.546875 17.015625 -17.425781 17.953125 -15.1875 C 19.203125 -17.425781 21.1875 -18.546875 23.90625 -18.546875 C 28.25 -18.546875 30.421875 -15.921875 30.421875 -10.671875 L 30.421875 0 L 25.90625 0 L 25.90625 -10.375 C 25.90625 -13.113281 24.785156 -14.484375 22.546875 -14.484375 C 21.335938 -14.484375 20.382812 -14.070312 19.6875 -13.25 C 19 -12.4375 18.65625 -11.285156 18.65625 -9.796875 L 18.65625 0 L 14.140625 0 L 14.140625 -10.890625 C 14.140625 -12.023438 13.875 -12.90625 13.34375 -13.53125 C 12.820312 -14.164062 12.054688 -14.484375 11.046875 -14.484375 C 9.640625 -14.484375 8.597656 -14.039062 7.921875 -13.15625 C 7.242188 -12.28125 6.90625 -11.1875 6.90625 -9.875 L 6.90625 0 L 2.375 0 L 2.375 -18.09375 L 6.671875 -18.09375 L 6.671875 -15.265625 L 6.75 -15.265625 C 7.800781 -17.453125 9.648438 -18.546875 12.296875 -18.546875 Z M 12.296875 -18.546875 "/></g></g></g><g fill="#377dff" fill-opacity="1"><g transform="translate(114.337719, 43.346151)"><g><path d="M 13.203125 -18.546875 C 15.804688 -18.546875 17.9375 -17.664062 19.59375 -15.90625 C 21.257812 -14.144531 22.09375 -11.859375 22.09375 -9.046875 C 22.09375 -6.359375 21.28125 -4.101562 19.65625 -2.28125 C 18.039062 -0.457031 15.9375 0.453125 13.34375 0.453125 C 10.707031 0.453125 8.660156 -0.460938 7.203125 -2.296875 L 7.09375 -2.296875 L 7.09375 8.59375 L 2.5625 8.59375 L 2.5625 -18.09375 L 6.859375 -18.09375 L 6.859375 -15.390625 L 6.9375 -15.390625 C 8.269531 -17.492188 10.359375 -18.546875 13.203125 -18.546875 Z M 6.9375 -9.046875 C 6.9375 -7.492188 7.429688 -6.203125 8.421875 -5.171875 C 9.421875 -4.140625 10.695312 -3.625 12.25 -3.625 C 13.738281 -3.625 14.992188 -4.128906 16.015625 -5.140625 C 17.046875 -6.160156 17.5625 -7.460938 17.5625 -9.046875 C 17.5625 -10.578125 17.050781 -11.863281 16.03125 -12.90625 C 15.019531 -13.957031 13.75 -14.484375 12.21875 -14.484375 C 10.726562 -14.484375 9.472656 -13.96875 8.453125 -12.9375 C 7.441406 -11.90625 6.9375 -10.609375 6.9375 -9.046875 Z M 6.9375 -9.046875 "/></g></g></g><g fill="#377dff" fill-opacity="1"><g transform="translate(138.091708, 43.346151)"><g><path d="M 10.21875 -18.546875 C 12.800781 -18.546875 14.734375 -17.921875 16.015625 -16.671875 C 17.304688 -15.429688 17.953125 -13.484375 17.953125 -10.828125 L 17.953125 0 L 13.875 0 L 13.875 -2.484375 L 13.765625 -2.484375 C 12.535156 -0.523438 10.597656 0.453125 7.953125 0.453125 C 5.992188 0.453125 4.40625 -0.0507812 3.1875 -1.0625 C 1.96875 -2.082031 1.359375 -3.390625 1.359375 -4.984375 C 1.359375 -7.085938 2.238281 -8.660156 4 -9.703125 C 5.757812 -10.742188 8.585938 -11.265625 12.484375 -11.265625 L 13.875 -11.265625 L 13.875 -11.796875 C 13.875 -12.859375 13.492188 -13.679688 12.734375 -14.265625 C 11.984375 -14.859375 10.984375 -15.15625 9.734375 -15.15625 C 7.867188 -15.15625 6.257812 -14.523438 4.90625 -13.265625 L 2.53125 -15.640625 C 4.414062 -17.578125 6.976562 -18.546875 10.21875 -18.546875 Z M 5.875 -5.3125 C 5.875 -4.53125 6.191406 -3.9375 6.828125 -3.53125 C 7.472656 -3.132812 8.226562 -2.9375 9.09375 -2.9375 C 10.644531 -2.9375 11.785156 -3.316406 12.515625 -4.078125 C 13.242188 -4.847656 13.609375 -5.8125 13.609375 -6.96875 L 13.609375 -8.109375 L 12.296875 -8.109375 C 8.015625 -8.109375 5.875 -7.175781 5.875 -5.3125 Z M 5.875 -5.3125 "/></g></g></g><g fill="#377dff" fill-opacity="1"><g transform="translate(158.339161, 43.346151)"><g><path d="M 12.515625 -18.546875 C 12.890625 -18.546875 13.429688 -18.457031 14.140625 -18.28125 L 14.140625 -13.90625 C 13.359375 -14.132812 12.628906 -14.25 11.953125 -14.25 C 10.472656 -14.25 9.289062 -13.804688 8.40625 -12.921875 C 7.53125 -12.046875 7.09375 -10.878906 7.09375 -9.421875 L 7.09375 0 L 2.5625 0 L 2.5625 -18.09375 L 7.09375 -18.09375 L 7.09375 -15.234375 L 7.15625 -15.234375 C 7.664062 -16.285156 8.382812 -17.097656 9.3125 -17.671875 C 10.238281 -18.253906 11.304688 -18.546875 12.515625 -18.546875 Z M 12.515625 -18.546875 "/></g></g></g><g fill="#377dff" fill-opacity="1"><g transform="translate(173.006312, 43.346151)"><g><path d="M 10.21875 -18.546875 C 12.800781 -18.546875 14.734375 -17.921875 16.015625 -16.671875 C 17.304688 -15.429688 17.953125 -13.484375 17.953125 -10.828125 L 17.953125 0 L 13.875 0 L 13.875 -2.484375 L 13.765625 -2.484375 C 12.535156 -0.523438 10.597656 0.453125 7.953125 0.453125 C 5.992188 0.453125 4.40625 -0.0507812 3.1875 -1.0625 C 1.96875 -2.082031 1.359375 -3.390625 1.359375 -4.984375 C 1.359375 -7.085938 2.238281 -8.660156 4 -9.703125 C 5.757812 -10.742188 8.585938 -11.265625 12.484375 -11.265625 L 13.875 -11.265625 L 13.875 -11.796875 C 13.875 -12.859375 13.492188 -13.679688 12.734375 -14.265625 C 11.984375 -14.859375 10.984375 -15.15625 9.734375 -15.15625 C 7.867188 -15.15625 6.257812 -14.523438 4.90625 -13.265625 L 2.53125 -15.640625 C 4.414062 -17.578125 6.976562 -18.546875 10.21875 -18.546875 Z M 5.875 -5.3125 C 5.875 -4.53125 6.191406 -3.9375 6.828125 -3.53125 C 7.472656 -3.132812 8.226562 -2.9375 9.09375 -2.9375 C 10.644531 -2.9375 11.785156 -3.316406 12.515625 -4.078125 C 13.242188 -4.847656 13.609375 -5.8125 13.609375 -6.96875 L 13.609375 -8.109375 L 12.296875 -8.109375 C 8.015625 -8.109375 5.875 -7.175781 5.875 -5.3125 Z M 5.875 -5.3125 "/></g></g></g><g fill="#377dff" fill-opacity="1"><g transform="translate(193.253766, 43.346151)"><g><path d="M 7.09375 -28.5 L 7.09375 -15.796875 L 7.203125 -15.796875 C 8.660156 -17.628906 10.707031 -18.546875 13.34375 -18.546875 C 15.90625 -18.546875 18.003906 -17.628906 19.640625 -15.796875 C 21.273438 -13.960938 22.09375 -11.710938 22.09375 -9.046875 C 22.09375 -6.234375 21.257812 -3.945312 19.59375 -2.1875 C 17.9375 -0.425781 15.804688 0.453125 13.203125 0.453125 C 10.328125 0.453125 8.238281 -0.601562 6.9375 -2.71875 L 6.859375 -2.71875 L 6.859375 0 L 2.5625 0 L 2.5625 -28.5 Z M 6.9375 -9.046875 C 6.9375 -7.515625 7.429688 -6.226562 8.421875 -5.1875 C 9.421875 -4.144531 10.695312 -3.625 12.25 -3.625 C 13.78125 -3.625 15.046875 -4.144531 16.046875 -5.1875 C 17.054688 -6.226562 17.5625 -7.515625 17.5625 -9.046875 C 17.5625 -10.609375 17.066406 -11.90625 16.078125 -12.9375 C 15.085938 -13.96875 13.800781 -14.484375 12.21875 -14.484375 C 10.726562 -14.484375 9.472656 -13.96875 8.453125 -12.9375 C 7.441406 -11.90625 6.9375 -10.609375 6.9375 -9.046875 Z M 6.9375 -9.046875 "/></g></g></g><g fill="#377dff" fill-opacity="1"><g transform="translate(217.007754, 43.346151)"><g><path d="M 7.15625 -28.5 L 7.15625 0 L 2.640625 0 L 2.640625 -28.5 Z M 7.15625 -28.5 "/></g></g></g><g fill="#377dff" fill-opacity="1"><g transform="translate(226.810988, 43.346151)"><g><path d="M 11.5 -18.546875 C 14.21875 -18.546875 16.3125 -17.640625 17.78125 -15.828125 C 19.25 -14.023438 19.984375 -11.664062 19.984375 -8.75 L 19.984375 -7.46875 L 6.1875 -7.46875 C 6.332031 -6.15625 6.851562 -5.109375 7.75 -4.328125 C 8.644531 -3.554688 9.742188 -3.171875 11.046875 -3.171875 C 12.953125 -3.171875 14.570312 -3.988281 15.90625 -5.625 L 19.15625 -3.171875 C 17.195312 -0.753906 14.644531 0.453125 11.5 0.453125 C 8.738281 0.453125 6.40625 -0.425781 4.5 -2.1875 C 2.601562 -3.945312 1.65625 -6.234375 1.65625 -9.046875 C 1.65625 -11.859375 2.601562 -14.144531 4.5 -15.90625 C 6.40625 -17.664062 8.738281 -18.546875 11.5 -18.546875 Z M 15.453125 -10.859375 C 15.429688 -12.285156 14.992188 -13.359375 14.140625 -14.078125 C 13.285156 -14.796875 12.179688 -15.15625 10.828125 -15.15625 C 9.460938 -15.15625 8.390625 -14.757812 7.609375 -13.96875 C 6.835938 -13.175781 6.363281 -12.140625 6.1875 -10.859375 Z M 15.453125 -10.859375 "/></g></g></g><g fill="#377dff" fill-opacity="1"><g transform="translate(248.453511, 43.346151)"><g><path d="M 8.75 -18.546875 C 11.71875 -18.546875 13.878906 -17.628906 15.234375 -15.796875 L 12.21875 -13.078125 C 11.3125 -14.316406 10.128906 -14.9375 8.671875 -14.9375 C 7.941406 -14.9375 7.316406 -14.757812 6.796875 -14.40625 C 6.285156 -14.050781 6.03125 -13.582031 6.03125 -13 C 6.03125 -12.125 6.921875 -11.5 8.703125 -11.125 L 10.328125 -10.75 C 12.316406 -10.320312 13.722656 -9.660156 14.546875 -8.765625 C 15.378906 -7.867188 15.796875 -6.734375 15.796875 -5.359375 C 15.796875 -3.597656 15.09375 -2.1875 13.6875 -1.125 C 12.28125 -0.0703125 10.367188 0.453125 7.953125 0.453125 C 4.910156 0.453125 2.570312 -0.476562 0.9375 -2.34375 L 3.953125 -5.171875 C 4.734375 -4.316406 5.453125 -3.726562 6.109375 -3.40625 C 6.765625 -3.09375 7.476562 -2.9375 8.25 -2.9375 C 9.082031 -2.9375 9.789062 -3.125 10.375 -3.5 C 10.96875 -3.882812 11.265625 -4.390625 11.265625 -5.015625 C 11.265625 -6.046875 10.335938 -6.773438 8.484375 -7.203125 C 6.066406 -7.753906 4.554688 -8.1875 3.953125 -8.5 C 3.347656 -8.8125 2.863281 -9.1875 2.5 -9.625 C 2.132812 -10.070312 1.878906 -10.550781 1.734375 -11.0625 C 1.585938 -11.582031 1.515625 -12.128906 1.515625 -12.703125 C 1.515625 -14.492188 2.195312 -15.914062 3.5625 -16.96875 C 4.9375 -18.019531 6.664062 -18.546875 8.75 -18.546875 Z M 8.75 -18.546875 "/></g></g></g><g fill="#377dff" fill-opacity="1"><g transform="translate(265.194418, 43.346151)"><g><path d="M 5.578125 -5.578125 C 6.378906 -5.578125 7.082031 -5.304688 7.6875 -4.765625 C 8.289062 -4.222656 8.59375 -3.539062 8.59375 -2.71875 C 8.59375 -1.882812 8.289062 -1.1875 7.6875 -0.625 C 7.082031 -0.0625 6.378906 0.21875 5.578125 0.21875 C 4.773438 0.21875 4.070312 -0.0546875 3.46875 -0.609375 C 2.863281 -1.160156 2.5625 -1.835938 2.5625 -2.640625 C 2.5625 -3.472656 2.863281 -4.171875 3.46875 -4.734375 C 4.070312 -5.296875 4.773438 -5.578125 5.578125 -5.578125 Z M 5.578125 -5.578125 "/></g></g></g><g fill="#377dff" fill-opacity="1"><g transform="translate(276.355022, 43.346151)"><g><path d="M 8.703125 -23.34375 L 8.703125 -18.09375 L 13.6875 -18.09375 L 13.6875 -14.25 L 8.703125 -14.25 L 8.703125 -6.21875 C 8.703125 -4.332031 9.546875 -3.390625 11.234375 -3.390625 C 12.367188 -3.390625 13.1875 -3.578125 13.6875 -3.953125 L 13.6875 -0.15625 C 12.832031 0.25 11.640625 0.453125 10.109375 0.453125 C 8.015625 0.453125 6.503906 -0.00390625 5.578125 -0.921875 C 4.648438 -1.835938 4.1875 -3.453125 4.1875 -5.765625 L 4.1875 -14.25 L 0.453125 -14.25 L 0.453125 -18.09375 L 4.1875 -18.09375 L 4.1875 -23.34375 Z M 8.703125 -23.34375 "/></g></g></g><g fill="#377dff" fill-opacity="1"><g transform="translate(291.022184, 43.346151)"><g><path d="M 11.5 -18.546875 C 14.21875 -18.546875 16.3125 -17.640625 17.78125 -15.828125 C 19.25 -14.023438 19.984375 -11.664062 19.984375 -8.75 L 19.984375 -7.46875 L 6.1875 -7.46875 C 6.332031 -6.15625 6.851562 -5.109375 7.75 -4.328125 C 8.644531 -3.554688 9.742188 -3.171875 11.046875 -3.171875 C 12.953125 -3.171875 14.570312 -3.988281 15.90625 -5.625 L 19.15625 -3.171875 C 17.195312 -0.753906 14.644531 0.453125 11.5 0.453125 C 8.738281 0.453125 6.40625 -0.425781 4.5 -2.1875 C 2.601562 -3.945312 1.65625 -6.234375 1.65625 -9.046875 C 1.65625 -11.859375 2.601562 -14.144531 4.5 -15.90625 C 6.40625 -17.664062 8.738281 -18.546875 11.5 -18.546875 Z M 15.453125 -10.859375 C 15.429688 -12.285156 14.992188 -13.359375 14.140625 -14.078125 C 13.285156 -14.796875 12.179688 -15.15625 10.828125 -15.15625 C 9.460938 -15.15625 8.390625 -14.757812 7.609375 -13.96875 C 6.835938 -13.175781 6.363281 -12.140625 6.1875 -10.859375 Z M 15.453125 -10.859375 "/></g></g></g><g fill="#377dff" fill-opacity="1"><g transform="translate(312.664718, 43.346151)"><g><path d="M 11.5 -18.546875 C 14.238281 -18.546875 16.425781 -17.628906 18.0625 -15.796875 L 14.9375 -12.671875 C 13.800781 -13.878906 12.65625 -14.484375 11.5 -14.484375 C 9.894531 -14.484375 8.609375 -13.945312 7.640625 -12.875 C 6.671875 -11.800781 6.1875 -10.523438 6.1875 -9.046875 C 6.1875 -7.441406 6.691406 -6.132812 7.703125 -5.125 C 8.722656 -4.125 9.988281 -3.625 11.5 -3.625 C 12.957031 -3.625 14.125 -4.1875 15 -5.3125 L 18.015625 -2.078125 C 17.316406 -1.367188 16.359375 -0.769531 15.140625 -0.28125 C 13.921875 0.207031 12.707031 0.453125 11.5 0.453125 C 8.738281 0.453125 6.40625 -0.425781 4.5 -2.1875 C 2.601562 -3.945312 1.65625 -6.234375 1.65625 -9.046875 C 1.65625 -11.785156 2.582031 -14.050781 4.4375 -15.84375 C 6.300781 -17.644531 8.65625 -18.546875 11.5 -18.546875 Z M 11.5 -18.546875 "/></g></g></g><g fill="#377dff" fill-opacity="1"><g transform="translate(330.838393, 43.346151)"><g><path d="M 7.09375 -28.5 L 7.09375 -15.578125 L 7.15625 -15.578125 C 7.632812 -16.523438 8.34375 -17.253906 9.28125 -17.765625 C 10.226562 -18.285156 11.296875 -18.546875 12.484375 -18.546875 C 14.566406 -18.546875 16.1875 -17.921875 17.34375 -16.671875 C 18.5 -15.429688 19.078125 -13.71875 19.078125 -11.53125 L 19.078125 0 L 14.546875 0 L 14.546875 -9.390625 C 14.546875 -12.785156 13.441406 -14.484375 11.234375 -14.484375 C 9.878906 -14.484375 8.847656 -14.0625 8.140625 -13.21875 C 7.441406 -12.375 7.09375 -11.273438 7.09375 -9.921875 L 7.09375 0 L 2.5625 0 L 2.5625 -28.5 Z M 7.09375 -28.5 "/></g></g></g></svg>