<svg xmlns="http://www.w3.org/2000/svg" xmlns:xlink="http://www.w3.org/1999/xlink" width="200" zoomAndPan="magnify" viewBox="0 0 201.75 68.999997" height="92" preserveAspectRatio="xMidYMid meet" version="1.0"><defs><g/><clipPath id="d6b018d8bd"><path d="M 0 0.0429688 L 201.5 0.0429688 L 201.5 68.957031 L 0 68.957031 Z M 0 0.0429688 " clip-rule="nonzero"/></clipPath><clipPath id="069f48bab3"><path d="M 0 8.730469 L 47.191406 8.730469 L 47.191406 55.921875 L 0 55.921875 Z M 0 8.730469 " clip-rule="nonzero"/></clipPath></defs><g clip-path="url(#d6b018d8bd)"><path fill="#ffffff" d="M 0 0.0429688 L 201.5 0.0429688 L 201.5 68.957031 L 0 68.957031 Z M 0 0.0429688 " fill-opacity="1" fill-rule="nonzero"/></g><g fill="#377dff" fill-opacity="1"><g transform="translate(50.419993, 46.820586)"><g><path d="M 2.265625 0 L 2.265625 -26.125 L 12.578125 -26.125 C 15.546875 -26.125 17.847656 -25.347656 19.484375 -23.796875 C 21.117188 -22.253906 21.9375 -20.1875 21.9375 -17.59375 C 21.9375 -15.800781 21.539062 -14.269531 20.75 -13 C 19.957031 -11.738281 18.816406 -10.789062 17.328125 -10.15625 L 22.875 0 L 16.78125 0 L 11.828125 -9.265625 L 7.796875 -9.265625 L 7.796875 0 Z M 7.796875 -13.703125 L 11.546875 -13.703125 C 14.679688 -13.703125 16.25 -15 16.25 -17.59375 C 16.25 -20.269531 14.671875 -21.609375 11.515625 -21.609375 L 7.796875 -21.609375 Z M 7.796875 -13.703125 "/></g></g></g><g fill="#377dff" fill-opacity="1"><g transform="translate(73.99785, 46.820586)"><g><path d="M 7.75 0.375 C 5.882812 0.375 4.332031 -0.113281 3.09375 -1.09375 C 1.863281 -2.070312 1.25 -3.53125 1.25 -5.46875 C 1.25 -6.9375 1.59375 -8.085938 2.28125 -8.921875 C 2.96875 -9.753906 3.867188 -10.363281 4.984375 -10.75 C 6.109375 -11.132812 7.316406 -11.382812 8.609375 -11.5 C 10.304688 -11.675781 11.519531 -11.859375 12.25 -12.046875 C 12.988281 -12.234375 13.359375 -12.640625 13.359375 -13.265625 L 13.359375 -13.34375 C 13.359375 -14.15625 13.101562 -14.78125 12.59375 -15.21875 C 12.09375 -15.65625 11.378906 -15.875 10.453125 -15.875 C 9.472656 -15.875 8.691406 -15.660156 8.109375 -15.234375 C 7.535156 -14.816406 7.15625 -14.28125 6.96875 -13.625 L 1.9375 -14.03125 C 2.3125 -15.8125 3.238281 -17.222656 4.71875 -18.265625 C 6.207031 -19.316406 8.125 -19.84375 10.46875 -19.84375 C 11.925781 -19.84375 13.285156 -19.613281 14.546875 -19.15625 C 15.816406 -18.695312 16.84375 -17.976562 17.625 -17 C 18.40625 -16.03125 18.796875 -14.769531 18.796875 -13.21875 L 18.796875 0 L 13.640625 0 L 13.640625 -2.71875 L 13.484375 -2.71875 C 13.003906 -1.8125 12.289062 -1.066406 11.34375 -0.484375 C 10.394531 0.0859375 9.195312 0.375 7.75 0.375 Z M 9.3125 -3.375 C 10.5 -3.375 11.472656 -3.71875 12.234375 -4.40625 C 13.003906 -5.101562 13.390625 -5.96875 13.390625 -7 L 13.390625 -9.078125 C 13.179688 -8.929688 12.851562 -8.800781 12.40625 -8.6875 C 11.957031 -8.582031 11.476562 -8.488281 10.96875 -8.40625 C 10.46875 -8.332031 10.019531 -8.265625 9.625 -8.203125 C 8.664062 -8.066406 7.894531 -7.796875 7.3125 -7.390625 C 6.726562 -6.992188 6.4375 -6.414062 6.4375 -5.65625 C 6.4375 -4.90625 6.707031 -4.335938 7.25 -3.953125 C 7.789062 -3.566406 8.476562 -3.375 9.3125 -3.375 Z M 9.3125 -3.375 "/></g></g></g><g fill="#377dff" fill-opacity="1"><g transform="translate(94.845372, 46.820586)"><g><path d="M 9.390625 0.3125 C 7.898438 0.3125 6.554688 -0.0664062 5.359375 -0.828125 C 4.160156 -1.597656 3.207031 -2.734375 2.5 -4.234375 C 1.789062 -5.742188 1.4375 -7.585938 1.4375 -9.765625 C 1.4375 -12.015625 1.800781 -13.882812 2.53125 -15.375 C 3.257812 -16.863281 4.222656 -17.976562 5.421875 -18.71875 C 6.628906 -19.46875 7.945312 -19.84375 9.375 -19.84375 C 10.46875 -19.84375 11.382812 -19.65625 12.125 -19.28125 C 12.863281 -18.914062 13.457031 -18.460938 13.90625 -17.921875 C 14.363281 -17.378906 14.710938 -16.835938 14.953125 -16.296875 L 15.109375 -16.296875 L 15.109375 -26.125 L 20.53125 -26.125 L 20.53125 0 L 15.1875 0 L 15.1875 -3.140625 L 14.953125 -3.140625 C 14.703125 -2.597656 14.34375 -2.0625 13.875 -1.53125 C 13.40625 -1 12.800781 -0.554688 12.0625 -0.203125 C 11.332031 0.140625 10.441406 0.3125 9.390625 0.3125 Z M 11.109375 -4 C 12.421875 -4 13.4375 -4.53125 14.15625 -5.59375 C 14.875 -6.65625 15.234375 -8.054688 15.234375 -9.796875 C 15.234375 -11.546875 14.875 -12.9375 14.15625 -13.96875 C 13.445312 -15.007812 12.429688 -15.53125 11.109375 -15.53125 C 9.765625 -15.53125 8.738281 -15 8.03125 -13.9375 C 7.332031 -12.875 6.984375 -11.492188 6.984375 -9.796875 C 6.984375 -8.085938 7.335938 -6.691406 8.046875 -5.609375 C 8.753906 -4.535156 9.773438 -4 11.109375 -4 Z M 11.109375 -4 "/></g></g></g><g fill="#377dff" fill-opacity="1"><g transform="translate(117.670475, 46.820586)"><g><path d="M 2.171875 0 L 2.171875 -19.59375 L 7.609375 -19.59375 L 7.609375 0 Z M 4.90625 -22.125 C 4.101562 -22.125 3.410156 -22.390625 2.828125 -22.921875 C 2.253906 -23.460938 1.96875 -24.113281 1.96875 -24.875 C 1.96875 -25.632812 2.253906 -26.28125 2.828125 -26.8125 C 3.410156 -27.351562 4.101562 -27.625 4.90625 -27.625 C 5.707031 -27.625 6.394531 -27.351562 6.96875 -26.8125 C 7.550781 -26.28125 7.84375 -25.632812 7.84375 -24.875 C 7.84375 -24.113281 7.550781 -23.460938 6.96875 -22.921875 C 6.394531 -22.390625 5.707031 -22.125 4.90625 -22.125 Z M 4.90625 -22.125 "/></g></g></g><g fill="#377dff" fill-opacity="1"><g transform="translate(127.443551, 46.820586)"><g><path d="M 11.09375 0.375 C 9.09375 0.375 7.363281 -0.03125 5.90625 -0.84375 C 4.445312 -1.664062 3.328125 -2.832031 2.546875 -4.34375 C 1.765625 -5.851562 1.375 -7.640625 1.375 -9.703125 C 1.375 -11.722656 1.765625 -13.492188 2.546875 -15.015625 C 3.328125 -16.535156 4.429688 -17.71875 5.859375 -18.5625 C 7.285156 -19.414062 8.957031 -19.84375 10.875 -19.84375 C 12.601562 -19.84375 14.160156 -19.476562 15.546875 -18.75 C 16.941406 -18.019531 18.046875 -16.914062 18.859375 -15.4375 C 19.679688 -13.96875 20.09375 -12.125 20.09375 -9.90625 L 20.09375 -8.40625 L 6.75 -8.40625 L 6.75 -8.390625 C 6.75 -6.929688 7.144531 -5.78125 7.9375 -4.9375 C 8.738281 -4.09375 9.820312 -3.671875 11.1875 -3.671875 C 12.09375 -3.671875 12.878906 -3.863281 13.546875 -4.25 C 14.210938 -4.632812 14.679688 -5.195312 14.953125 -5.9375 L 19.96875 -5.609375 C 19.59375 -3.796875 18.625 -2.34375 17.0625 -1.25 C 15.507812 -0.164062 13.519531 0.375 11.09375 0.375 Z M 6.75 -11.78125 L 14.96875 -11.78125 C 14.96875 -12.9375 14.597656 -13.894531 13.859375 -14.65625 C 13.117188 -15.414062 12.15625 -15.796875 10.96875 -15.796875 C 9.757812 -15.796875 8.769531 -15.398438 8 -14.609375 C 7.226562 -13.828125 6.8125 -12.882812 6.75 -11.78125 Z M 6.75 -11.78125 "/></g></g></g><g fill="#377dff" fill-opacity="1"><g transform="translate(148.916244, 46.820586)"><g><path d="M 7.609375 -11.328125 L 7.609375 0 L 2.171875 0 L 2.171875 -19.59375 L 7.34375 -19.59375 L 7.34375 -16.140625 L 7.578125 -16.140625 C 8.015625 -17.273438 8.742188 -18.175781 9.765625 -18.84375 C 10.785156 -19.507812 12.019531 -19.84375 13.46875 -19.84375 C 15.507812 -19.84375 17.144531 -19.1875 18.375 -17.875 C 19.613281 -16.5625 20.234375 -14.757812 20.234375 -12.46875 L 20.234375 0 L 14.796875 0 L 14.796875 -11.5 C 14.804688 -12.707031 14.5 -13.644531 13.875 -14.3125 C 13.257812 -14.988281 12.40625 -15.328125 11.3125 -15.328125 C 10.21875 -15.328125 9.328125 -14.976562 8.640625 -14.28125 C 7.953125 -13.582031 7.609375 -12.597656 7.609375 -11.328125 Z M 7.609375 -11.328125 "/></g></g></g><g fill="#377dff" fill-opacity="1"><g transform="translate(171.25652, 46.820586)"><g><path d="M 12.59375 -19.59375 L 12.59375 -15.515625 L 8.90625 -15.515625 L 8.90625 -6.015625 C 8.90625 -5.273438 9.070312 -4.769531 9.40625 -4.5 C 9.75 -4.238281 10.191406 -4.109375 10.734375 -4.109375 C 10.992188 -4.109375 11.25 -4.128906 11.5 -4.171875 C 11.757812 -4.222656 11.957031 -4.257812 12.09375 -4.28125 L 12.953125 -0.25 C 12.679688 -0.15625 12.296875 -0.0507812 11.796875 0.0625 C 11.304688 0.175781 10.707031 0.242188 10 0.265625 C 8.03125 0.347656 6.445312 -0.078125 5.25 -1.015625 C 4.050781 -1.953125 3.457031 -3.382812 3.46875 -5.3125 L 3.46875 -15.515625 L 0.796875 -15.515625 L 0.796875 -19.59375 L 3.46875 -19.59375 L 3.46875 -24.28125 L 8.90625 -24.28125 L 8.90625 -19.59375 Z M 12.59375 -19.59375 "/></g></g></g><g clip-path="url(#069f48bab3)"><path fill="#377dff" d="M 23.574219 55.6875 C 22.058594 55.6875 20.558594 55.546875 19.074219 55.257812 L 23.429688 32.796875 C 23.476562 32.804688 23.523438 32.808594 23.574219 32.808594 C 23.613281 32.808594 23.65625 32.804688 23.695312 32.800781 L 27.316406 55.390625 C 26.074219 55.589844 24.828125 55.6875 23.574219 55.6875 Z M 35.144531 52.65625 L 23.902344 32.726562 C 23.976562 32.683594 24.042969 32.628906 24.097656 32.5625 L 41.511719 47.40625 C 39.699219 49.535156 37.578125 51.285156 35.144531 52.65625 Z M 11.339844 52.265625 C 8.949219 50.816406 6.886719 49 5.144531 46.8125 L 23.03125 32.542969 C 23.085938 32.613281 23.148438 32.667969 23.222656 32.714844 Z M 45.691406 40.265625 L 24.21875 32.359375 C 24.246094 32.28125 24.261719 32.203125 24.257812 32.121094 L 47.140625 32.121094 C 47.144531 34.921875 46.660156 37.636719 45.691406 40.265625 Z M 1.199219 39.539062 C 0.402344 37.128906 0.00390625 34.65625 0.00390625 32.121094 C 0.00390625 31.867188 0.0078125 31.613281 0.015625 31.363281 L 22.886719 32.09375 C 22.886719 32.101562 22.886719 32.109375 22.886719 32.121094 C 22.882812 32.195312 22.894531 32.269531 22.917969 32.339844 Z M 24.234375 31.921875 C 24.210938 31.847656 24.175781 31.777344 24.128906 31.71875 L 42.464844 18.03125 C 44.144531 20.277344 45.382812 22.746094 46.175781 25.4375 Z M 22.929688 31.863281 L 1.730469 23.257812 C 2.78125 20.664062 4.25 18.332031 6.136719 16.261719 L 23.0625 31.660156 C 23.007812 31.722656 22.960938 31.789062 22.929688 31.863281 Z M 23.941406 31.539062 C 23.878906 31.496094 23.808594 31.46875 23.738281 31.449219 L 28.820312 9.140625 C 31.558594 9.765625 34.105469 10.84375 36.453125 12.382812 Z M 23.261719 31.503906 L 12.675781 11.222656 C 15.164062 9.921875 17.800781 9.09375 20.585938 8.742188 L 23.46875 31.441406 C 23.398438 31.449219 23.328125 31.46875 23.261719 31.503906 Z M 23.261719 31.503906 " fill-opacity="1" fill-rule="nonzero"/></g></svg>